<?xml version="1.0" encoding="UTF-8"?>
<svg xmlns="http://www.w3.org/2000/svg" version="1.1" xmlns:xlink="http://www.w3.org/1999/xlink" viewBox="0 0 479.9 479.9">
  <defs>
    <style>
      .cls-1 {
        fill: #fff;
        filter: url(#drop-shadow-1);
        stroke: #000;
        stroke-width: 14px;
      }

      .cls-2 {
        isolation: isolate;
      }

      .cls-3 {
        display: none;
      }
    </style>
    <filter id="drop-shadow-1" filterUnits="userSpaceOnUse">
      <feOffset dx="7" dy="7"/>
      <feGaussianBlur result="blur" stdDeviation="4"/>
      <feFlood flood-color="#000" flood-opacity=".8"/>
      <feComposite in2="blur" operator="in"/>
      <feComposite in="SourceGraphic"/>
    </filter>
  </defs>
  <!-- Generator: Adobe Illustrator 28.6.0, SVG Export Plug-In . SVG Version: 1.2.0 Build 709)  -->
  <g>
    <g id="Capa_1">
      <g id="Capa_1-2" data-name="Capa_1">
        <rect class="cls-1" x="7.2" y="7" width="458.9" height="457.1"/>
        <g class="cls-2">
          <g class="cls-2">
            <g class="cls-3">
              <path d="M218,1h46c.3,1,1.2,1,2,1,15.5.7,30.4,4.2,45.1,8.6,34.9,10.5,65.8,28.5,92.9,52.8,13.4,12,24.8,25.8,35.1,40.6,10.1,14.5,18.3,30.1,25.1,46.3,6.6,15.8,11,32.2,13.9,49.1,1,6,.9,12.2,2.9,18.1v45.9c-2,5.9-1.8,12.1-2.9,18.1-3.5,20.1-9.3,39.5-17.9,58.1-9,19.3-20.1,37.2-33.7,53.8-12.2,14.9-26.1,28-41.3,39.5-15.8,12-33.1,21.4-51.4,29.2-23.3,10-47.7,16-72.9,17.6-15,1-30.2.9-45.3-.6-15.4-1.5-30.3-4.5-45.1-8.9-34.9-10.5-65.5-28.4-92.5-52.6-13.4-12-24.9-25.8-35.2-40.6-10.1-14.5-18.4-30.1-25.1-46.4-6.6-15.8-11-32.2-14-49.1-1-6-.9-12.2-2.9-18.1v-45.9c1-.3,1-1.2,1-2,.7-15.4,4.2-30.3,8.7-45,10.5-34.9,28.6-65.7,52.9-92.7,12-13.3,25.9-24.8,40.7-35.1,14.5-10.1,30.1-18.3,46.4-25.1,15.8-6.5,32.3-11,49.2-13.9,6-1,12.2-.9,18.1-2.9l.2.2ZM240.6,36.2c-55.6.7-104.4,20.6-144.1,60.2-39.4,39.2-60,87.6-60.2,143-.2,57.4,20.7,107.4,62.1,147.2,39.2,37.6,87,58.2,141.7,58.1,57.1,0,107.1-20.1,147.1-61.4,38.5-39.8,58.6-88.1,58.5-143.4,0-55.7-20.6-104.2-60.1-143.6-39.6-39.4-88.2-59.4-144.9-60.2h-.1Z"/>
            </g>
          </g>
          <g class="cls-2">
            <g>
              <path d="M392.1,247.5c18.1,0,36.4,0,54.5,0,4.3,0,5.7,1.2,5.6,5.6-.2,19.9-.3,39.9,0,59.8,0,4.9-1.6,5.9-6,5.8-12.1-.3-24.2.2-36.4-.2-6.4-.2-11.4,1.6-16.6,5.5-28,21.6-56.4,42.8-84.4,64.3-6,4.7-12.2,6.8-19.9,6.8-46.6-.3-93-.5-139.6,0-11.8,0-22.2-9.3-22.1-20.8,0-11.7,9.1-20.5,21.7-20.6,25.8,0,51.6,0,77.4,0,3.6,0,5.4,1.1,6.9,4.7,7.4,18.1,29.6,23.3,44,10,12.8-11.7,25-24.2,37.4-36.3,1.7-1.7,3.4-3.3,1-5.8-2.6-2.8-4.3-1.3-6.3.7-12.1,11.9-24.2,23.9-36.6,35.6-6.7,6.3-15.6,7.5-23.4,3.7-7.6-3.8-11.8-11.4-11.2-20.3.4-4.9,2.5-9,5.9-12.4,28.4-27.7,56.7-55.4,85.2-83.1,2.3-2.3,4.9-2.7,8-2.7h54.5l.2-.2Z"/>
              <path d="M47.4,147.2c8.1,0,16-.2,24.1,0,4,0,5.4-1.2,5.5-5.3.5-17.8.6-17.8,18.1-17.8h2.9c3.5,0,7.3.8,7-4.9-.3-5.4-2.2-8.2-7.6-8.3-10-.2-20,0-29.9,0s-11.3-.2-16.5,4c-5.3,4.2-13.5,1.6-17.8-3.9-4.4-5.7-4-13.7,1-18.8,5-5.3,13-6.3,18.5-1.7,3.1,2.6,6.3,3.4,10.2,3.3,8.8-.2,17.6,0,26.4,0s11.3.3,16.4-4.2c4.2-3.6,10.2-2.8,14.6,1.1,2.9,2.5,5.9,3.3,9.6,3.2,7.9-.2,15.6-.2,23.5,0,5.5,0,10.5-.3,15.2-4.2,4.9-4.1,12.8-2.2,17.5,2.9,4.8,5.2,4.9,13.4.5,18.8s-12.5,7.6-17.8,3.4c-4.9-3.9-10-3.8-15.4-3.8h-25.8c-4.2,0-7.3,1.6-8.1,6-1.2,5.8.3,7.4,6.2,7.4s7.9,0,11.7,0c5.8.3,8.3,2.9,8.8,8.7.4,4.5-1.8,10.1,1.4,13,3.5,3.2,9.3,1.1,14.2,1.2,11,.2,21.9,0,32.9,0,22.8.3,36.9,14.5,36.9,37.1v14.6c0,4,.3,7.3,3.3,10.7,4.5,4.9.6,11.8-6.6,12.1-6.6.3-13.3,0-20,0s-17.6,0-26.4,0c-8.9-.2-11.7-5-7.8-13,2.8-5.7-1.2-13.7-7.7-14.2-7.4-.6-14.8-.2-22.3-.3-3.2,0-4.1,2.7-5.4,4.7-7.6,11.1-18.1,15.5-31.4,14.3-9.6-1-16.4-6.3-21-14.3-2.2-3.8-4.8-4.9-9-4.9-17.8.2-35.6,0-53.4.2-4.4,0-6.2-.9-6-5.8.4-12.1.3-24.2,0-36.4,0-4.2,1.4-5.3,5.3-5.2,8.1.3,16,0,24.1,0l.2.3Z"/>
              <path d="M203.5,313.1c-15,0-26.6-14.6-22.6-29.6,4.9-18.1,12.5-35.2,20.3-52.3,1.5-3.2,3-3.4,4.6,0,7.6,17.1,15.6,34.1,20.8,52.2,4.3,14.9-7.8,29.9-23,29.8h0Z"/>
            </g>
          </g>
        </g>
      </g>
    </g>
  </g>
</svg>