<?xml version="1.0" encoding="UTF-8"?>
<svg xmlns="http://www.w3.org/2000/svg" version="1.1" xmlns:xlink="http://www.w3.org/1999/xlink" viewBox="0 0 479.9 479.9">
  <defs>
    <style>
      .cls-1 {
        fill: #fff;
        filter: url(#drop-shadow-1);
        stroke: #000;
        stroke-width: 9.8px;
      }

      .cls-2 {
        isolation: isolate;
      }

      .cls-3 {
        display: none;
      }
    </style>
    <filter id="drop-shadow-1" filterUnits="userSpaceOnUse">
      <feOffset dx="7" dy="7"/>
      <feGaussianBlur result="blur" stdDeviation="5"/>
      <feFlood flood-color="#000" flood-opacity=".8"/>
      <feComposite in2="blur" operator="in"/>
      <feComposite in="SourceGraphic"/>
    </filter>
  </defs>
  <!-- Generator: Adobe Illustrator 28.6.0, SVG Export Plug-In . SVG Version: 1.2.0 Build 709)  -->
  <g>
    <g id="Capa_1">
      <g id="Capa_1-2" data-name="Capa_1">
        <rect class="cls-1" x="5.2" y="5" width="469.9" height="470"/>
        <g class="cls-2">
          <g class="cls-2">
            <g class="cls-3">
              <path d="M218,1h46c.3,1,1.2,1,2,1,15.5.7,30.4,4.2,45.1,8.6,34.9,10.5,65.8,28.5,92.9,52.8,13.4,12,24.8,25.8,35.1,40.6,10.1,14.5,18.3,30.1,25.1,46.3,6.6,15.8,11,32.2,13.9,49.1,1,6,.9,12.2,2.9,18.1v45.9c-2,5.9-1.8,12.1-2.9,18.1-3.5,20.1-9.3,39.5-17.9,58.1-9,19.3-20.1,37.2-33.7,53.8-12.2,14.9-26.1,28-41.3,39.5-15.8,12-33.1,21.4-51.4,29.2-23.3,10-47.7,16-72.9,17.6-15,1-30.2.9-45.3-.6-15.4-1.5-30.3-4.5-45.1-8.9-34.9-10.5-65.5-28.4-92.5-52.6-13.4-12-24.9-25.8-35.2-40.6-10.1-14.5-18.4-30.1-25.1-46.4-6.6-15.8-11-32.2-14-49.1-1-6-.9-12.2-2.9-18.1v-45.9c1-.3,1-1.2,1-2,.7-15.4,4.2-30.3,8.7-45,10.5-34.9,28.6-65.7,52.9-92.7,12-13.3,25.9-24.8,40.7-35.1,14.5-10.1,30.1-18.3,46.4-25.1,15.8-6.5,32.3-11,49.2-13.9,6-1,12.2-.9,18.1-2.9l.2.2ZM240.6,36.2c-55.6.7-104.4,20.6-144.1,60.2-39.4,39.2-60,87.6-60.2,143-.2,57.4,20.7,107.4,62.1,147.2,39.2,37.6,87,58.2,141.7,58.1,57.1,0,107.1-20.1,147.1-61.4,38.5-39.8,58.6-88.1,58.5-143.4,0-55.7-20.6-104.2-60.1-143.6-39.6-39.4-88.2-59.4-144.9-60.2h-.1Z"/>
            </g>
          </g>
          <g class="cls-2">
            <g>
              <path d="M403,247.7c18.7,0,37.5.1,56.2,0,4.4,0,5.9,1.2,5.8,5.8-.2,20.5-.3,41.1,0,61.6,0,5-1.7,6.1-6.2,6-12.5-.3-25,.2-37.5-.2-6.6-.2-11.8,1.6-17.1,5.7-28.9,22.3-58.1,44.1-87,66.3-6.2,4.8-12.6,7-20.5,7-48-.3-95.9-.5-143.9,0-12.2.1-22.9-9.6-22.8-21.4.1-12.1,9.4-21.1,22.4-21.2,26.6-.1,53.2,0,79.8-.1,3.7,0,5.6,1.1,7.1,4.8,7.6,18.7,30.5,24,45.4,10.3,13.2-12.1,25.8-24.9,38.6-37.4,1.8-1.8,3.5-3.4,1-6-2.7-2.9-4.4-1.3-6.5.7-12.5,12.3-25,24.6-37.7,36.7-6.9,6.5-16.1,7.7-24.1,3.8-7.8-3.9-12.2-11.8-11.5-20.9.4-5.1,2.6-9.3,6.1-12.8,29.3-28.6,58.5-57.1,87.8-85.7,2.4-2.4,5.1-2.8,8.2-2.8h56.2l.2-.2Z"/>
              <path d="M47.6,144.3c8.3,0,16.5-.2,24.8,0,4.1.1,5.6-1.2,5.7-5.5.5-18.3.6-18.3,18.7-18.3h3c3.6,0,7.5.8,7.2-5.1-.3-5.6-2.3-8.5-7.8-8.6-10.3-.2-20.6,0-30.8,0s-11.6-.2-17,4.1c-5.5,4.3-13.9,1.7-18.3-4-4.5-5.9-4.1-14.1,1-19.4,5.2-5.5,13.4-6.5,19.1-1.8,3.2,2.7,6.5,3.5,10.5,3.4,9.1-.2,18.1,0,27.2,0s11.6.3,16.9-4.3c4.3-3.7,10.5-2.9,15,1.1,3,2.6,6.1,3.4,9.9,3.3,8.1-.2,16.1-.2,24.2,0,5.7,0,10.8-.3,15.7-4.3,5.1-4.2,13.2-2.3,18,3,4.9,5.4,5.1,13.8.5,19.4s-12.9,7.8-18.4,3.5c-5.1-4-10.3-3.9-15.9-3.9h-26.6c-4.3,0-7.5,1.6-8.4,6.2-1.2,6,.3,7.6,6.4,7.6s8.1,0,12.1,0c6,.3,8.6,3,9.1,9,.4,4.6-1.9,10.4,1.4,13.4,3.6,3.3,9.6,1.1,14.6,1.2,11.3.2,22.6,0,33.9,0,23.5.3,38,14.9,38,38.2v15.1c0,4.1.3,7.5,3.4,11,4.6,5.1.6,12.2-6.8,12.5-6.8.3-13.7.1-20.6.1s-18.1.1-27.2,0c-9.2-.2-12.1-5.2-8-13.4,2.9-5.9-1.2-14.1-7.9-14.6-7.6-.6-15.3-.2-23-.3-3.3,0-4.2,2.8-5.6,4.8-7.8,11.4-18.7,16-32.4,14.7-9.9-1-16.9-6.5-21.6-14.7-2.3-3.9-5-5-9.3-5-18.3.2-36.7,0-55,.2-4.5,0-6.4-.9-6.2-6,.4-12.5.3-25,0-37.5,0-4.3,1.4-5.5,5.5-5.4,8.3.3,16.5,0,24.8,0l.2.3Z"/>
              <path d="M208.5,315.3c-15.5-.1-27.4-15.1-23.3-30.5,5-18.7,12.9-36.3,20.9-53.9,1.5-3.3,3.1-3.5,4.7,0,7.8,17.6,16.1,35.2,21.4,53.8,4.4,15.4-8,30.8-23.7,30.7h0Z"/>
            </g>
          </g>
        </g>
      </g>
    </g>
  </g>
</svg>