<?xml version="1.0" encoding="UTF-8"?>
<svg id="Capa_1" xmlns="http://www.w3.org/2000/svg" xmlns:xlink="http://www.w3.org/1999/xlink" viewBox="0 0 510 510">
  <defs>
    <style>
      .cls-1 {
        fill: #fff;
        filter: url(#drop-shadow-1);
        stroke: #000;
        stroke-width: 13.88px;
      }
    </style>
    <filter id="drop-shadow-1" filterUnits="userSpaceOnUse">
      <feOffset dx="6.94" dy="6.94"/>
      <feGaussianBlur result="blur" stdDeviation="4.96"/>
      <feFlood flood-color="#000" flood-opacity=".75"/>
      <feComposite in2="blur" operator="in"/>
      <feComposite in="SourceGraphic"/>
    </filter>
  </defs>
  <g id="Capa_1-2" data-name="Capa_1">
    <rect class="cls-1" x="15.07" y="14.97" width="465.8" height="466"/>
  </g>
  <g>
    <path d="M151.67,233.91c1.44-4.12,1.96-5.87,5.94-7.8,9.05-2.95,16.84-8.91,23.43-15.66,18.69-20.16,29.4-48.31,28.37-75.97-.07-1.06-.14-2.08-.21-3.11-.45-8.1-1.01-16.13-2.98-24.01-.31-1.12-.62-2.2-.92-3.29-5.69-20.32-14.62-38.17-32.26-50.7-15.83-9.91-33.82-13.23-52.32-9.67-22.12,6.87-36.46,20.64-47.42,40.61-12.7,27.51-13.48,61.46-4.13,89.97,6.97,19.34,19,39.33,38.17,48.41,4.24,1.89,8.24,3.45,11.44,6.9,6.96,12.03,6.46,28.41,5.14,41.78-.18,1.46-.35,2.88-.52,4.3-.67,6.11-1.42,12.21-3.45,18.04q-8.15,21.75-8.09,67.46c0,5.53-.01,11.06-.05,16.59-.08,10.76-.11,21.52-.11,32.29,0,.93,0,1.82,0,2.72,0,18.26.8,33.5,2.2,46.09,15.16-.72,29.74.26,44.6.45.73-5.96,1.2-12.32,1.31-19-.07-14.27-.16-28.54-.27-42.81-.06-7.36-.12-14.73-.16-22.09-.03-7.2-.07-14.4-.13-21.61-.03-2.75-.05-5.5-.07-8.25-.01-3.94-.02-7.88-.06-11.82q-.02-1.85-.04-3.66c.01-8.23-.94-15.18-3.53-23.02-7.06-21.06-11.97-48.13-5.1-69.75q.63-1.72,1.24-3.4ZM84.4,169.07c-9.06-23.84-3.01-48.86,6.5-71.5h1.3c-.31,34.07.21,61.64,14.07,93.17,2.52,5.71,4.89,11.35,6.73,17.33-13.21-10.06-22.03-23.94-28.6-39Z"/>
    <path d="M431.5,43.46q-9.1,1.3-12.61,4.21-46.36,55.65-53.69,273.99,3.77-.18,6.74.81c8.21,4.01,14.99,9.18,19.26,17.39,4.72,10.62,5.44,22.8,1.69,33.91-3.36,9.6-3.63,18.92-3.76,28.98-.03,2.88-.08,5.77-.14,8.65-.04,1.83-.08,3.66-.11,5.5-.03,1.91-.07,28.42-.15,41.27h44.06c-.64-174.33-.65-242.17-1.29-414.7Z"/>
    <path d="M340.97,153.78c-.13-1.05-.25-2.06-.37-3.08-.4-3.49-.8-6.98-1.21-10.47-.29-2.48-.58-4.97-.87-7.45-.75-6.52-1.51-13.05-2.28-19.57-.79-6.75-1.58-13.51-2.36-20.26-1.69-14.55-3.38-29.09-5.08-43.63-4.42-.44-8.71-.87-13-1.3.41,12.56.82,25.11,1.21,37.67.03,1.03.06,2.04.09,3.04.95,30.63,1.75,61.24,1.3,91.89h-13V48.01h-13v132.6h-10.4V48.01h-14.3v132.6h-13c-.16-24.48.22-48.89,1.04-73.35.12-3.63.24-7.25.35-10.88.11-3.62.23-7.24.34-10.85.06-1.76.11-3.47.17-5.19.28-8.79.6-17.55,1.39-26.31.21-2.05.41-4.04.61-6.02h-13c0,4.19-.3,8.1-.82,12.24-.13.95-.25,1.88-.37,2.8-.26,2.04-.53,4.09-.79,6.13-.43,3.34-.87,6.69-1.3,10.03-1.23,9.61-2.45,19.22-3.7,28.83-.78,5.98-1.55,11.95-2.31,17.93-.29,2.29-.58,4.59-.87,6.88-1.18,8.99-2.53,18-2.98,27.07-.53,19.22,3.61,33.35,16.89,47.62,5.73,6.16,11.05,12.47,15.4,19.69,9.94,18.83,13.22,41.68,7.45,62.49-5.25,17.66-6.75,34.07-6.73,52.46,0,3.07,0,6.14-.02,9.21-.06,8.1-.1,16.2-.1,24.3,0,8.37-.04,16.75-.08,25.12-.09,17.31-.15,34.63-.17,51.94,0,.15,0,.46,0,.84h44.32c.04-1.39.07-2.65.02-3.34l-.15-2.86c-.04-15.25-.11-30.5-.2-45.75-.05-8.2-.11-16.4-.13-24.61-.02-8-.05-15.99-.1-23.99-.02-3.08-.05-6.16-.07-9.23,0-17.89-.5-34.97-4.13-52.54-1.56-7.42-2.45-14.49-2.38-22.1.04-1.19.08-2.35.11-3.51.22-22.15,7.13-40.74,21.74-57.45,2.91-3.1,5.81-6.18,8.57-9.41,9.09-14.27,10.13-28.62,8.28-45.03Z"/>
  </g>
</svg>