<?xml version="1.0" encoding="UTF-8"?>
<svg version="1.1" xmlns="http://www.w3.org/2000/svg" width="480" height="480">
<path d="M0 0 C0.99830841 0.00304138 1.99661682 0.00608276 3.025177 0.00921631 C19.08368987 0.08126132 34.58233328 0.95098457 50.3125 4.4375 C51.31168457 4.65712402 52.31086914 4.87674805 53.34033203 5.10302734 C87.30255215 12.81451972 120.02706361 27.67178603 147.3125 49.4375 C148.22128906 50.15421875 149.13007813 50.8709375 150.06640625 51.609375 C164.14378788 62.90331986 177.11962192 75.26112131 188.3125 89.4375 C189.08207031 90.37851563 189.85164063 91.31953125 190.64453125 92.2890625 C224.12344726 134.15122889 241.09740458 186.85425 240.75 240.125 C240.74543793 241.62246262 240.74543793 241.62246262 240.74078369 243.150177 C240.66873868 259.20868987 239.79901543 274.70733328 236.3125 290.4375 C236.09287598 291.43668457 235.87325195 292.43586914 235.64697266 293.46533203 C227.93548028 327.42755215 213.07821397 360.15206361 191.3125 387.4375 C190.23742187 388.80068359 190.23742187 388.80068359 189.140625 390.19140625 C177.84668014 404.26878788 165.48887869 417.24462192 151.3125 428.4375 C150.37148438 429.20707031 149.43046875 429.97664063 148.4609375 430.76953125 C106.59877111 464.24844726 53.89575 481.22240458 0.625 480.875 C-0.37330841 480.87195862 -1.37161682 480.86891724 -2.400177 480.86578369 C-18.45868987 480.79373868 -33.95733328 479.92401543 -49.6875 476.4375 C-50.68668457 476.21787598 -51.68586914 475.99825195 -52.71533203 475.77197266 C-86.67755215 468.06048028 -119.40206361 453.20321397 -146.6875 431.4375 C-147.59628906 430.72078125 -148.50507813 430.0040625 -149.44140625 429.265625 C-163.51878788 417.97168014 -176.49462192 405.61387869 -187.6875 391.4375 C-188.45707031 390.49648438 -189.22664063 389.55546875 -190.01953125 388.5859375 C-223.49844726 346.72377111 -240.47240458 294.02075 -240.125 240.75 C-240.12195862 239.75169159 -240.11891724 238.75338318 -240.11578369 237.724823 C-240.04373868 221.66631013 -239.17401543 206.16766672 -235.6875 190.4375 C-235.46787598 189.43831543 -235.24825195 188.43913086 -235.02197266 187.40966797 C-227.31048028 153.44744785 -212.45321397 120.72293639 -190.6875 93.4375 C-189.97078125 92.52871094 -189.2540625 91.61992188 -188.515625 90.68359375 C-177.22168014 76.60621212 -164.86387869 63.63037808 -150.6875 52.4375 C-149.74648437 51.66792969 -148.80546875 50.89835937 -147.8359375 50.10546875 C-105.97377111 16.62655274 -53.27075 -0.34740458 0 0 Z M-137.46875 89.4296875 C-139.01728959 90.83100678 -140.62099309 92.17267893 -142.26171875 93.46484375 C-144.44439704 95.23980757 -146.19058247 96.98333211 -148 99.125 C-149.79844491 101.23990946 -151.59160786 103.3353811 -153.4921875 105.359375 C-180.04569618 133.78595276 -197.57416249 173.13788186 -202.6875 211.4375 C-202.80706055 212.32791992 -202.92662109 213.21833984 -203.04980469 214.13574219 C-207.01005849 245.51825758 -203.39504896 276.43808294 -193.6875 306.4375 C-193.47432129 307.11619141 -193.26114258 307.79488281 -193.04150391 308.49414062 C-183.92424713 337.03889063 -166.3450415 363.81127 -144.6875 384.4375 C-139.6875 389.4375 -139.6875 389.4375 -138.22192383 390.96899414 C-133.76035889 395.57004526 -128.98396112 399.51558532 -123.875 403.375 C-123.11251953 403.96345703 -122.35003906 404.55191406 -121.56445312 405.15820312 C-117.99739355 408.27030618 -117.99739355 408.27030618 -113.6875 409.4375 C-113.68829559 408.56958328 -113.68909119 407.70166656 -113.68991089 406.80744934 C-113.69214145 398.52850819 -113.66511813 390.25024847 -113.6072216 381.97150135 C-113.57845187 377.71775341 -113.56003503 373.46454439 -113.56738281 369.21069336 C-113.61411632 334.04661107 -113.61411632 334.04661107 -107.34272766 317.31741333 C-105.77854108 312.82960644 -105.20494265 308.14033317 -104.6875 303.4375 C-104.55472656 302.34695313 -104.42195313 301.25640625 -104.28515625 300.1328125 C-103.26618749 289.8515322 -102.88304484 277.2532868 -108.23828125 267.99609375 C-110.70005181 265.34852919 -113.77439147 264.14183927 -117.0390625 262.69140625 C-131.78996517 255.7075718 -141.04351962 240.32723818 -146.40332031 225.45068359 C-153.59319278 203.52212478 -152.99684759 177.40114847 -143.2265625 156.2421875 C-134.79604434 140.87895897 -123.76827295 130.28795352 -106.75 125 C-92.52043799 122.25768612 -78.68255336 124.81592163 -66.50390625 132.4375 C-52.93300466 142.07453414 -46.06282065 155.8037323 -41.6875 171.4375 C-41.45289063 172.27152344 -41.21828125 173.10554687 -40.9765625 173.96484375 C-39.46241742 180.03239613 -39.03354188 186.20874622 -38.6875 192.4375 C-38.63335937 193.22640625 -38.57921875 194.0153125 -38.5234375 194.828125 C-37.72721212 216.10905775 -45.96459398 237.75978768 -60.34472656 253.26757812 C-65.41623588 258.46041541 -71.40737924 263.03990955 -78.3671875 265.3125 C-81.43304043 266.79897415 -81.82819979 268.1444138 -82.9375 271.3125 C-83.40929687 272.60800781 -83.40929687 272.60800781 -83.890625 273.9296875 C-89.17523578 290.56066849 -85.39876092 311.38501395 -79.96836853 327.5824852 C-77.97573627 333.61520123 -77.24446854 338.96292211 -77.25512695 345.29345703 C-77.23983948 346.68553123 -77.23983948 346.68553123 -77.22424316 348.10572815 C-77.19434605 351.13565286 -77.18488307 354.16526026 -77.17578125 357.1953125 C-77.15891728 359.3109541 -77.14076475 361.42658578 -77.12138367 363.54220581 C-77.0740642 369.08228456 -77.04413825 374.62232309 -77.01794434 380.16253662 C-76.98804742 385.8271885 -76.9415486 391.49170207 -76.89648438 397.15625 C-76.81065679 408.24992738 -76.74322043 419.34363338 -76.6875 430.4375 C-72.8901693 431.72776839 -69.08989259 433.00914291 -65.2890625 434.2890625 C-64.22502197 434.6507251 -63.16098145 435.0123877 -62.06469727 435.38500977 C-53.04271745 438.41537219 -44.04239026 440.72436652 -34.6875 442.4375 C-33.58535156 442.65019531 -32.48320312 442.86289062 -31.34765625 443.08203125 C-23.4957262 444.4049625 -15.6696479 444.70074706 -7.72265625 444.98828125 C-6.56382935 445.03231079 -5.40500244 445.07634033 -4.21105957 445.1217041 C-1.36995254 445.22931625 1.47122209 445.33451575 4.3125 445.4375 C4.31304477 444.89417904 4.31358953 444.35085808 4.31415081 443.79107285 C4.32922227 430.47328845 4.37239073 417.15583888 4.44459057 403.83823776 C4.47868681 397.39748348 4.50394338 390.95696204 4.50805664 384.51611328 C4.51237702 378.28480742 4.54114656 372.05402527 4.58593178 365.82288361 C4.59878823 363.46143917 4.60325726 361.09993167 4.59865379 358.73845673 C4.57752046 344.58821032 5.73112187 331.96842011 9.77325249 318.38321495 C14.21008135 302.37423199 11.69279859 284.80386178 4.04296875 270.31640625 C0.70139071 264.75716694 -3.38932144 259.90559934 -7.80078125 255.16796875 C-18.01029672 244.1893749 -21.19875401 233.32184247 -20.78982544 218.53376007 C-20.44935358 211.55878324 -19.40929014 204.629182 -18.5 197.7109375 C-18.27496329 195.94701582 -18.0507766 194.1829855 -17.82739258 192.41885376 C-17.24307603 187.81970983 -16.64881718 183.22191042 -16.05187988 178.62438965 C-15.09407121 171.23305873 -14.15218491 163.83967922 -13.20932007 156.44643021 C-12.8798135 153.87352305 -12.54634144 151.30115474 -12.2121582 148.72885132 C-12.0098642 147.15697034 -11.80763104 145.58508152 -11.60546875 144.01318359 C-11.51196136 143.30150024 -11.41845398 142.58981689 -11.32211304 141.85656738 C-10.91491093 138.6702535 -10.6875 135.65938202 -10.6875 132.4375 C-7.3875 132.4375 -4.0875 132.4375 -0.6875 132.4375 C-0.8414624 133.96640869 -0.9954248 135.49531738 -1.15405273 137.07055664 C-1.76463196 143.81084869 -2.01108712 150.54564284 -2.22265625 157.30859375 C-2.26563339 158.6249733 -2.30861053 159.94135284 -2.35289001 161.29762268 C-2.44325022 164.08026779 -2.5311733 166.86297678 -2.61743164 169.64575195 C-2.7041018 172.43494064 -2.79420885 175.22397915 -2.88793945 178.01293945 C-3.52021721 196.83047217 -3.81211832 215.6072104 -3.6875 234.4375 C-0.3875 234.4375 2.9125 234.4375 6.3125 234.4375 C6.3125 200.7775 6.3125 167.1175 6.3125 132.4375 C9.9425 132.4375 13.5725 132.4375 17.3125 132.4375 C17.3125 166.0975 17.3125 199.7575 17.3125 234.4375 C19.9525 234.4375 22.5925 234.4375 25.3125 234.4375 C25.3125 200.7775 25.3125 167.1175 25.3125 132.4375 C28.6125 132.4375 31.9125 132.4375 35.3125 132.4375 C35.3125 166.0975 35.3125 199.7575 35.3125 234.4375 C38.6125 234.4375 41.9125 234.4375 45.3125 234.4375 C45.66063005 210.85838395 45.04346322 187.31533232 44.3125 163.75 C44.28858437 162.97878689 44.26466873 162.20757378 44.24002838 161.41299057 C43.93968448 151.75420437 43.6302247 142.09573053 43.3125 132.4375 C46.6125 132.7675 49.9125 133.0975 53.3125 133.4375 C54.62240995 144.62475225 55.92673113 155.81264079 57.22401428 167.00136471 C57.82663327 172.19727684 58.43114092 177.39295442 59.04003906 182.58813477 C59.62810248 187.60616252 60.21110768 192.62475492 60.79067993 197.64377022 C61.01215326 199.55401936 61.23541723 201.4640618 61.46054077 203.3738842 C61.77668208 206.0585374 62.08632195 208.74386954 62.39453125 211.42944336 C62.48803864 212.21060013 62.58154602 212.9917569 62.67788696 213.79658508 C64.10519399 226.42402417 63.30710216 237.4605696 56.3125 248.4375 C54.19118903 250.92952551 51.96250025 253.29401058 49.72265625 255.6796875 C38.48339562 268.5401705 33.1723032 282.83995724 33 299.875 C32.97099609 300.76509766 32.94199219 301.65519531 32.91210938 302.57226562 C32.86013877 308.42895247 33.54043863 313.86480566 34.74179459 319.57390404 C37.53664696 333.08847056 37.91679967 346.23328455 37.921875 359.9921875 C37.93690132 362.35972193 37.95363755 364.72724606 37.97198486 367.09475708 C38.01517125 373.24626214 38.03554788 379.39762598 38.05072021 385.54925537 C38.07046936 391.85844103 38.11241765 398.16747798 38.15234375 404.4765625 C38.22711651 416.79682856 38.27772608 429.11706052 38.3125 441.4375 C40.85788245 440.9763635 43.40237111 440.51099594 45.9465332 440.04321289 C46.66059578 439.91429909 47.37465836 439.78538528 48.11035919 439.652565 C54.09487229 438.54675086 59.77215198 436.9396894 65.5 434.875 C66.45471191 434.53782959 67.40942383 434.20065918 68.39306641 433.85327148 C84.93866154 428.5090385 84.93866154 428.5090385 99.3125 419.4375 C99.43499624 417.19104038 99.49236946 414.94098864 99.5234375 412.69140625 C99.5515522 411.28189035 99.58021683 409.87238533 99.609375 408.46289062 C99.65029138 406.24488167 99.68717431 404.02706585 99.71386719 401.80883789 C99.8149799 394.07458676 100.024621 386.90456844 102.60888672 379.51928711 C105.49676014 370.97490935 104.94269506 361.60543888 101.3125 353.4375 C98.03357206 347.12252767 92.81274192 343.14872938 86.5 340.0625 C84.21091042 339.30013944 84.21091042 339.30013944 81.3125 339.4375 C86.9512957 171.48227325 86.9512957 171.48227325 122.61328125 128.67578125 C125.3125 126.4375 125.3125 126.4375 132.3125 125.4375 C132.8075 259.0875 132.8075 259.0875 133.3125 395.4375 C135.6225 393.4575 137.9325 391.4775 140.3125 389.4375 C141.034375 388.83164062 141.75625 388.22578125 142.5 387.6015625 C147.26019917 383.55949683 151.34395372 379.25155231 155.3125 374.4375 C155.74578613 373.921875 156.17907227 373.40625 156.62548828 372.875 C164.42986 363.56582058 171.26796339 353.9759171 177.3125 343.4375 C177.75980469 342.66196777 178.20710938 341.88643555 178.66796875 341.08740234 C204.27787913 296.08175101 212.46840105 240.78443404 199.3125 190.4375 C189.89222523 157.35165692 174.83509606 127.99321236 151.3203125 102.65625 C149.91899322 101.10771041 148.57732107 99.50400691 147.28515625 97.86328125 C145.51019243 95.68060296 143.76666789 93.93441753 141.625 92.125 C139.51009054 90.32655509 137.4146189 88.53339214 135.390625 86.6328125 C99.25320564 52.87654093 46.79330776 34.10811985 -2.37890625 35.25 C-53.32651238 38.13723152 -99.62708963 54.3095164 -137.46875 89.4296875 Z M-129.6875 166.4375 C-137.00650629 183.85268493 -141.65664939 203.10255663 -134.6875 221.4375 C-129.63261303 233.02398249 -122.84741292 243.69746126 -112.6875 251.4375 C-114.09753927 246.83592023 -115.92329171 242.50125516 -117.86132812 238.10571289 C-128.52820175 213.85591991 -128.92352091 192.64671441 -128.6875 166.4375 C-129.0175 166.4375 -129.3475 166.4375 -129.6875 166.4375 Z " fill="#000000" transform="translate(239.6875,-0.4375)"/>
</svg>
