<?xml version="1.0" encoding="UTF-8"?>
<svg xmlns="http://www.w3.org/2000/svg" version="1.1" xmlns:inkscape="http://www.inkscape.org/namespaces/inkscape" xmlns:sodipodi="http://sodipodi.sourceforge.net/DTD/sodipodi-0.dtd" xmlns:svg="http://www.w3.org/2000/svg" xmlns:xlink="http://www.w3.org/1999/xlink" viewBox="0 0 279.6 450">
  <defs>
    <style>
      .cls-1 {
        fill: #708284;
      }

      .cls-2 {
        filter: url(#drop-shadow-1);
      }
    </style>
    <filter id="drop-shadow-1" x="-0.097878102" y="-0.076238685" width="1.2395639" height="1.1592606">
      <feOffset dx="7" dy="7"/>
      <feGaussianBlur result="blur" stdDeviation="5"/>
      <feFlood flood-color="#000" flood-opacity=".75"/>
      <feComposite in2="blur" operator="in"/>
      <feComposite in="SourceGraphic"/>
    </filter>
  </defs>
  <!-- Generator: Adobe Illustrator 28.6.0, SVG Export Plug-In . SVG Version: 1.2.0 Build 709)  -->
  <g>
    <g id="svg11" inkscape:version="1.3.2 (091e20e, 2023-11-25, custom)" sodipodi:docname="flujo_per_2.svg">
      <g id="g11" class="cls-2">
        <g id="svg2" inkscape:version="1.3.2 (091e20e, 2023-11-25, custom)" sodipodi:docname="flujo_per_2.svg">
          <sodipodi:namedview id="namedview4" bordercolor="#000000" borderopacity="0.25" inkscape:current-layer="svg2" inkscape:cx="214.8155" inkscape:cy="464.57432" inkscape:deskcolor="#d1d1d1" inkscape:pagecheckerboard="0" inkscape:pageopacity="0.0" inkscape:showpageshadow="2" inkscape:window-height="1009" inkscape:window-maximized="1" inkscape:window-width="1920" inkscape:window-x="-8" inkscape:window-y="-8" inkscape:zoom="0.87284205" pagecolor="#ffffff"/>
          <path id="path2-6" class="cls-1" d="M1.9,2c4.3,2.5,8.6,5.1,12.9,7.9l6.1,4.3,3.3,2,3,2.3,5.8,4.8c1,.8,2,1.5,3,2.3l2.8,2.5,3,2.5,1.5,1.3c.3.5.8,1,1.3,1.3l5.6,5.6c1.8,1.5,3.5,3.5,5.3,5.3,1.8,2,3.5,3.8,5.3,5.8l4.8,5.8,2.5,3,2.3,3,4.6,6.1,4.6,6.3,2,3.3c.8,1,1.5,2,2.3,3.3l4.1,6.3c1.3,2.3,2.5,4.3,4.1,6.6,1.3,2.3,2.5,4.3,3.8,6.6,2.5,4.6,5.1,8.9,7.3,13.4l3.5,6.6,3.3,6.8c2.5,4.6,4.6,8.9,6.8,13.4l6.6,13.4,6.3,13.4,12.9,26.6c2,4.3,4.3,8.9,6.3,13.2l3.3,6.3c1.3,2.3,2.3,4.3,3.5,6.6,2.3,4.3,4.6,8.4,7.1,12.7,2.3,4.1,4.8,8.4,7.3,12.4l7.6,12.4c1.3,2,2.8,4.1,4.1,6.1l3.8,6.1c1.3,2,2.5,4.1,3.8,6.1l3.8,6.1,7.3,12.4c1.3,2,2.3,4.1,3.5,6.1,1.3,2,2.3,4.3,3.5,6.3,2.3,4.1,4.6,8.4,6.8,12.7,2.3,4.1,4.8,8.4,7.1,12.7,1,2,2.3,4.3,3.3,6.3,1.3,2,2.3,4.3,3.5,6.3,2.3,4.3,4.6,8.6,6.8,12.9,2.3,4.3,4.6,8.6,6.8,12.9l3.5,6.6c1,2.3,2.3,4.3,3.3,6.6,2.3,4.6,4.6,8.9,6.6,13.4l-19,15.2c-3.8-3.3-7.6-6.6-11.6-9.9-1.8-1.8-3.8-3.3-5.6-5.1-2-1.8-3.8-3.5-5.6-5.3-3.8-3.5-7.3-7.1-10.9-10.9-3.5-3.8-6.8-7.6-10.4-11.4-13.4-15.2-26.1-31.4-36.5-49.1-1.5-2-2.8-4.3-4.1-6.6l-3.5-6.6-3.5-6.8c-1.3-2.3-2.3-4.6-3.3-6.8-4.6-9.4-8.4-18.7-12.2-28.1-2-4.8-3.8-9.6-5.6-14.2-2-4.8-3.8-9.6-5.6-14.4l-5.6-13.9c-1.8-4.8-3.5-9.4-5.3-14.2l-5.1-14.2-5.1-13.9-9.6-28.1c-6.3-18.5-12.9-37-20.5-54.4-7.9-17.5-17-34.4-28.4-49.9l-4.3-5.8c-.3-.5-.8-1-1-1.5l-1.3-1.3-2.3-2.8-2.3-2.8c-.8-.8-1.5-1.8-2.5-2.8l-4.8-5.3-2.5-2.5-2.5-2.5-5.3-5.1c-.8-1-1.8-1.8-2.8-2.5l-2.8-2.5L-.9,6,1.9,2Z"/>
          <path id="path3-7" class="cls-1" d="M243.8,401.6c1.5-14.7,14.2-31.7,24.8-41-5.6,23-6.6,48.1.5,71.4-21.3-11.6-46.3-13.9-70.1-13.7,12.4-8.9,29.1-18,44.8-16.7h0Z"/>
        </g>
      </g>
    </g>
  </g>
</svg>