<?xml version="1.0" encoding="UTF-8"?>
<svg xmlns="http://www.w3.org/2000/svg" version="1.1" xmlns:inkscape="http://www.inkscape.org/namespaces/inkscape" xmlns:sodipodi="http://sodipodi.sourceforge.net/DTD/sodipodi-0.dtd" xmlns:svg="http://www.w3.org/2000/svg" xmlns:xlink="http://www.w3.org/1999/xlink" viewBox="0 0 357.1 189.3">
  <defs>
    <style>
      .cls-1 {
        fill: #708284;
      }

      .cls-2 {
        filter: url(#drop-shadow-1);
      }
    </style>
    <filter id="drop-shadow-1" x="-0.047901573" y="-0.56966315" width="1.1037104" height="2.2608325">
      <feOffset dx="7" dy="7"/>
      <feGaussianBlur result="blur" stdDeviation="5"/>
      <feFlood flood-color="#000" flood-opacity=".75"/>
      <feComposite in2="blur" operator="in"/>
      <feComposite in="SourceGraphic"/>
    </filter>
  </defs>
  <!-- Generator: Adobe Illustrator 28.6.0, SVG Export Plug-In . SVG Version: 1.2.0 Build 709)  -->
  <g>
    <g id="Capa_1">
      <g id="Capa_1-2" data-name="Capa_1" inkscape:version="1.3.2 (091e20e, 2023-11-25, custom)" sodipodi:docname="icon_flujo_ecu_a.svg">
        <sodipodi:namedview id="namedview2" bordercolor="#000000" borderopacity="0.25" inkscape:current-layer="Capa_1" inkscape:cx="207.34731" inkscape:cy="45.042311" inkscape:deskcolor="#d1d1d1" inkscape:pagecheckerboard="0" inkscape:pageopacity="0.0" inkscape:showpageshadow="2" inkscape:window-height="1009" inkscape:window-maximized="1" inkscape:window-width="1920" inkscape:window-x="-8" inkscape:window-y="-8" inkscape:zoom="3.2746988" pagecolor="#ffffff"/>
        <g class="cls-2">
          <path id="path2-6" class="cls-1" d="M357.1,3.4c-31.8,6.7-62.4,16.3-92.5,28-15,5.8-29.7,12-44.2,18.9l-10.8,5.4-10.9,5.1-10.6,5.7-10.6,5.7c-6.9,3.8-14,7.8-20.9,12-3.4,2.1-6.7,4.1-10.1,6.2l-5.1,3.5-5.1,3.5c-13.2,8.9-26.3,18.2-39.9,26.9-13.5,8.3-27.1,17.1-40.4,25.7-13.2,8.9-26.7,18-39.5,27.8l-7.6-9.1c9.4-15.7,20.6-28.8,32.4-41.2,3-3,6.3-6.1,9.4-8.9l4.7-4.4c1.4-1.3,3.1-2.7,4.8-4.1,3.1-2.7,6.2-5.4,9.7-7.9l4.8-4.1,5.1-3.5c13.4-9.7,27.8-18,42.6-25.1l5.6-2.6,5.3-2.9c3.9-1.6,7.6-3.4,11-5.2,7.6-3.4,14.9-6.8,22.5-10.2,14.8-6.3,29.9-12.8,45.5-18,15.5-5.5,30.9-10.3,46.8-14.6,31.4-8.4,63.9-14,97-16.2l.8,3.2h.2Z"/>
          <path id="path3" class="cls-1" d="M14.2,171.8c7.7.4,18.4,8,24.6,14.5-12.8-2.7-26.3-2.6-37.5,3,3.5-14.3,1.6-30.1-1.4-45.8,6,8,12.7,18.3,14.3,28.4h0Z"/>
        </g>
      </g>
    </g>
  </g>
</svg>