<?xml version="1.0" encoding="UTF-8"?>
<svg xmlns="http://www.w3.org/2000/svg" version="1.1" xmlns:inkscape="http://www.inkscape.org/namespaces/inkscape" xmlns:sodipodi="http://sodipodi.sourceforge.net/DTD/sodipodi-0.dtd" xmlns:svg="http://www.w3.org/2000/svg" xmlns:xlink="http://www.w3.org/1999/xlink" viewBox="0 0 415 90">
  <defs>
    <style>
      .cls-1 {
        fill: none;
      }

      .cls-2 {
        fill: #708284;
      }

      .cls-3 {
        filter: url(#drop-shadow-1);
      }

      .cls-4 {
        isolation: isolate;
      }

      .cls-5 {
        clip-path: url(#clippath);
      }
    </style>
    <clipPath id="clippath">
      <rect class="cls-1" x="-2.9" y="-7.7" width="432" height="120"/>
    </clipPath>
    <filter id="drop-shadow-1" x="-0.047901573" y="-0.56966315" width="1.1037104" height="2.2608325">
      <feOffset dx="7" dy="7"/>
      <feGaussianBlur result="blur" stdDeviation="5"/>
      <feFlood flood-color="#000" flood-opacity=".75"/>
      <feComposite in2="blur" operator="in"/>
      <feComposite in="SourceGraphic"/>
    </filter>
  </defs>
  <!-- Generator: Adobe Illustrator 28.6.0, SVG Export Plug-In . SVG Version: 1.2.0 Build 709)  -->
  <g>
    <g id="Capa_1" inkscape:version="1.3.2 (091e20e, 2023-11-25, custom)" sodipodi:docname="icon_flujo_ecu_a.svg">
      <sodipodi:namedview id="namedview2" bordercolor="#000000" borderopacity="0.25" inkscape:current-layer="Capa_1" inkscape:cx="207.34731" inkscape:cy="45.042311" inkscape:deskcolor="#d1d1d1" inkscape:pagecheckerboard="0" inkscape:pageopacity="0.0" inkscape:showpageshadow="2" inkscape:window-height="1009" inkscape:window-maximized="1" inkscape:window-width="1920" inkscape:window-x="-8" inkscape:window-y="-8" inkscape:zoom="3.2746988" pagecolor="#ffffff"/>
      <g class="cls-5">
        <image id="image1" class="cls-4" width="417" height="92" transform="translate(-3.9 113.6) scale(1 1.3)" xlink:href="icon_flujo_ecu_a-1.png"/>
      </g>
      <g class="cls-3">
        <path id="path2-6" class="cls-2" d="M405.4,32.6c-32-5.7-64-8.3-96.3-8.7-16.1-.3-32,0-48.1,1l-12,1-12,.7-12,1.3-12,1.3c-7.8,1-15.9,2-23.9,3.3-3.9.7-7.8,1.3-11.7,2l-6,1.3-6,1.3c-15.6,3.3-31.2,7-47.1,10-15.6,2.7-31.5,5.7-47.1,8.7-15.6,3.3-31.5,6.7-47.1,11l-3.6-11.3c14.6-11,29.9-19,45.5-26,3.9-1.7,8.1-3.3,12-4.7l6-2.3c1.8-.7,3.9-1.3,6-2,3.9-1.3,7.8-2.7,12-3.7l6-2,6-1.3c16.1-4,32.5-6.3,48.9-7.3l6.2-.3,6-.7c4.2,0,8.3-.3,12.2-.7,8.3-.3,16.4-.7,24.7-1,16.1-.3,32.5-.7,48.9.3,16.4.7,32.5,2,48.9,4,32.3,4,64.5,11,96,21.3l-.5,3.3Z"/>
        <path id="path3" class="cls-2" d="M24.4,60.3c7,3.3,14.1,14.3,17.4,22.7-10.9-7.3-23.4-12.3-35.9-11.3,8.6-12,12.8-27.3,15.9-43,2.6,9.7,4.9,21.7,2.6,31.7Z"/>
      </g>
    </g>
  </g>
</svg>