<?xml version="1.0" encoding="UTF-8"?>
<svg id="Capa_1" xmlns="http://www.w3.org/2000/svg" xmlns:xlink="http://www.w3.org/1999/xlink" viewBox="0 0 510 510">
  <defs>
    <style>
      .cls-1 {
        fill: #fff;
        filter: url(#drop-shadow-1);
        stroke: #000;
        stroke-width: 13.88px;
      }

      .cls-2 {
        isolation: isolate;
      }
    </style>
    <filter id="drop-shadow-1" filterUnits="userSpaceOnUse">
      <feOffset dx="6.94" dy="6.94"/>
      <feGaussianBlur result="blur" stdDeviation="4.96"/>
      <feFlood flood-color="#000" flood-opacity=".75"/>
      <feComposite in2="blur" operator="in"/>
      <feComposite in="SourceGraphic"/>
    </filter>
  </defs>
  <g id="Capa_1-2" data-name="Capa_1">
    <rect class="cls-1" x="15.07" y="14.97" width="465.8" height="466"/>
    <g class="cls-2">
      <g class="cls-2">
        <g>
          <path d="M409.78,254.46c18.7,0,37.5.1,56.2,0,4.4,0,5.9,1.2,5.8,5.8-.2,20.5-.3,41.1,0,61.6,0,5-1.7,6.1-6.2,6-12.5-.3-25,.2-37.5-.2-6.6-.2-11.8,1.6-17.1,5.7-28.9,22.3-58.1,44.1-87,66.3-6.2,4.8-12.6,7-20.5,7-48-.3-95.9-.5-143.9,0-12.2.1-22.9-9.6-22.8-21.4.1-12.1,9.4-21.1,22.4-21.2,26.6-.1,53.2,0,79.8-.1,3.7,0,5.6,1.1,7.1,4.8,7.6,18.7,30.5,24,45.4,10.3,13.2-12.1,25.8-24.9,38.6-37.4,1.8-1.8,3.5-3.4,1-6-2.7-2.9-4.4-1.3-6.5.7-12.5,12.3-25,24.6-37.7,36.7-6.9,6.5-16.1,7.7-24.1,3.8-7.8-3.9-12.2-11.8-11.5-20.9.4-5.1,2.6-9.3,6.1-12.8,29.3-28.6,58.5-57.1,87.8-85.7,2.4-2.4,5.1-2.8,8.2-2.8h56.2l.2-.2Z"/>
          <path d="M54.38,151.06c8.3,0,16.5-.2,24.8,0,4.1.1,5.6-1.2,5.7-5.5.5-18.3.6-18.3,18.7-18.3h3c3.6,0,7.5.8,7.2-5.1-.3-5.6-2.3-8.5-7.8-8.6-10.3-.2-20.6,0-30.8,0-6,0-11.6-.2-17,4.1-5.5,4.3-13.9,1.7-18.3-4-4.5-5.9-4.1-14.1,1-19.4,5.2-5.5,13.4-6.5,19.1-1.8,3.2,2.7,6.5,3.5,10.5,3.4,9.1-.2,18.1,0,27.2,0,6,0,11.6.3,16.9-4.3,4.3-3.7,10.5-2.9,15,1.1,3,2.6,6.1,3.4,9.9,3.3,8.1-.2,16.1-.2,24.2,0,5.7.1,10.8-.3,15.7-4.3,5.1-4.2,13.2-2.3,18,3,4.9,5.4,5.1,13.8.5,19.4s-12.9,7.8-18.4,3.5c-5.1-4-10.3-3.9-15.9-3.9h-26.6c-4.3,0-7.5,1.6-8.4,6.2-1.2,6,.3,7.6,6.4,7.6,4,0,8.1-.1,12.1,0,6,.3,8.6,3,9.1,9,.4,4.6-1.9,10.4,1.4,13.4,3.6,3.3,9.6,1.1,14.6,1.2,11.3.2,22.6,0,33.9,0,23.5.3,38,14.9,38,38.2v15.1c0,4.1.3,7.5,3.4,11,4.6,5.1.6,12.2-6.8,12.5-6.8.3-13.7.1-20.6.1-9.1,0-18.1.1-27.2,0-9.2-.2-12.1-5.2-8-13.4,2.9-5.9-1.2-14.1-7.9-14.6-7.6-.6-15.3-.2-23-.3-3.3,0-4.2,2.8-5.6,4.8-7.8,11.4-18.7,16-32.4,14.7-9.9-1-16.9-6.5-21.6-14.7-2.3-3.9-5-5-9.3-5-18.3.2-36.7,0-55,.2-4.5,0-6.4-.9-6.2-6,.4-12.5.3-25,0-37.5,0-4.3,1.4-5.5,5.5-5.4,8.3.3,16.5,0,24.8,0l.2.3Z"/>
          <path d="M215.28,322.06c-15.5-.1-27.4-15.1-23.3-30.5,5-18.7,12.9-36.3,20.9-53.9,1.5-3.3,3.1-3.5,4.7,0,7.8,17.6,16.1,35.2,21.4,53.8,4.4,15.4-8,30.8-23.7,30.7v-.1Z"/>
        </g>
      </g>
    </g>
  </g>
</svg>
