<?xml version="1.0" encoding="UTF-8"?>
<svg id="Capa_1" xmlns="http://www.w3.org/2000/svg" xmlns:xlink="http://www.w3.org/1999/xlink" viewBox="0 0 510 510">
  <defs>
    <style>
      .cls-1 {
        fill: #fff;
        filter: url(#drop-shadow-1);
        stroke: #000;
        stroke-width: 13.9px;
      }
    </style>
    <filter id="drop-shadow-1" filterUnits="userSpaceOnUse">
      <feOffset dx="7" dy="7"/>
      <feGaussianBlur result="blur" stdDeviation="5"/>
      <feFlood flood-color="#000" flood-opacity=".75"/>
      <feComposite in2="blur" operator="in"/>
      <feComposite in="SourceGraphic"/>
    </filter>
  </defs>
  <g id="Capa_1-2" data-name="Capa_1">
    <g id="Capa_1-2">
      <g id="Capa_1-2-2" data-name="Capa_1-2">
        <g id="Capa_1-2-2">
          <g id="Capa_1-2-2-2" data-name="Capa_1-2-2">
            <g id="Capa_1-2-2-2">
              <g id="Capa_1-2-2-2-2" data-name="Capa_1-2-2-2">
                <g id="Capa_1-2-2-2-2">
                  <rect class="cls-1" x="15.1" y="15" width="465.8" height="466"/>
                </g>
              </g>
            </g>
          </g>
        </g>
      </g>
      <path d="M455.3,146.8l-194.9-113.3c-7-4.1-15.7-4.1-22.8,0L42.7,146.8c-7,4.1-11.3,11.5-11.3,19.6v276.5c0,12.5,10.1,22.7,22.7,22.7s22.7-10.1,22.7-22.7V179.5l172.3-100.2,172.3,100.2v263.5c0,12.5,10.1,22.7,22.7,22.7s22.7-10.1,22.7-22.7V166.4c0-8.1-4.3-15.5-11.3-19.6h-.2Z"/>
    </g>
  </g>
  <path d="M248.58,192.99c-54.27,0-95.2,37.03-95.2,86.13,0,7.51,6.09,13.6,13.6,13.6s13.6-6.09,13.6-13.6c.17-21.44,12.46-40.93,31.73-50.32v222.64c0,7.51,6.09,13.6,13.6,13.6s13.6-6.09,13.6-13.6v-113.33h18.13v113.33c0,7.51,6.09,13.6,13.6,13.6s13.6-6.09,13.6-13.6v-222.64c19.27,9.39,31.56,28.88,31.73,50.32,0,7.51,6.09,13.6,13.6,13.6s13.6-6.09,13.6-13.6c0-49.11-40.93-86.13-95.2-86.13Z"/>
  <circle cx="249.06" cy="147.72" r="27.2"/>
</svg>