<?xml version="1.0" encoding="UTF-8"?>
<svg xmlns="http://www.w3.org/2000/svg" version="1.1" xmlns:xlink="http://www.w3.org/1999/xlink" viewBox="0 0 510 510">
  <defs>
    <style>
      .cls-1 {
        fill: #fff;
        filter: url(#drop-shadow-1);
        stroke: #000;
        stroke-width: 13.9px;
      }
    </style>
    <filter id="drop-shadow-1">
      <feOffset dx="7" dy="7"/>
      <feGaussianBlur result="blur" stdDeviation="5"/>
      <feFlood flood-color="#000" flood-opacity=".75"/>
      <feComposite in2="blur" operator="in"/>
      <feComposite in="SourceGraphic"/>
    </filter>
  </defs>
  <!-- Generator: Adobe Illustrator 28.6.0, SVG Export Plug-In . SVG Version: 1.2.0 Build 709)  -->
  <g>
    <g id="Capa_1">
      <g id="Capa_1-2" data-name="Capa_1">
        <g id="Capa_1-2">
          <rect class="cls-1" x="15.1" y="15" width="465.8" height="466"/>
          <g>
            <path d="M180.3,67.4c17.5,0,31.6-14.2,31.6-31.6h-63.2c0,17.5,14.2,31.6,31.6,31.6h.1Z"/>
            <path d="M330.1,101l-61.3-58.8-4.7-4.5c-1.2-1.1-2.8-1.8-4.4-1.8h-35.2c0,24.4-19.8,44.2-44.2,44.2s-44.2-19.8-44.2-44.2h-35.2c-1.6,0-3.2.7-4.4,1.8l-4.7,4.5-61.3,58.9c-2.5,2.4-2.5,6.5,0,8.9h0l38.6,37.7c2.4,2.4,6.4,2.4,8.8,0l26.5-23.4v170.7c0,3.5,2.9,6.3,6.3,6.3h139c3.5,0,6.3-2.9,6.3-6.3V124.2l26.5,23.4c2.4,2.4,6.4,2.4,8.8,0l38.6-37.7c2.5-2.4,2.5-6.5,0-8.9h.2Z"/>
          </g>
        </g>
        <path d="M424.9,342.1h-10.3c-2.8-18.9-20.2-32.1-39.2-29.4-15.2,2.2-27.2,14.2-29.4,29.4h-79.6c-21.9,0-39.5,17.7-39.6,39.6v44.5c0,21.9,17.7,39.5,39.6,39.6h158.4c21.9,0,39.5-17.7,39.6-39.6v-44.5c0-21.9-17.7-39.5-39.6-39.6h.1ZM361.1,342.1c2.8-10.6,13.5-16.9,24.1-14.2,6.9,1.8,12.4,7.3,14.2,14.2.4,1.6.7,3.3.7,4.9,0,10.9-8.9,19.8-19.8,19.8s-19.8-8.9-19.8-19.8.2-3.3.7-4.9ZM328.3,406.4c-9.6,0-17.4-7.8-17.4-17.4s7.8-17.4,17.4-17.4,17.4,7.8,17.4,17.4-7.8,17.3-17.4,17.4ZM318.4,312.4c23.2,0,42.1-18.8,42.1-42.1s-18.8-42.1-42.1-42.1-42.1,18.8-42.1,42.1,18.8,42,42.1,42.1ZM318.4,243.1c15.1,0,27.3,12.2,27.3,27.3s-12.2,27.3-27.3,27.3-27.3-12.2-27.3-27.3,12.2-27.2,27.2-27.3h.1Z"/>
      </g>
    </g>
  </g>
</svg>