<?xml version="1.0" encoding="UTF-8"?>
<svg id="Capa_1" xmlns="http://www.w3.org/2000/svg" xmlns:xlink="http://www.w3.org/1999/xlink" viewBox="0 0 510 510">
  <defs>
    <style>
      .cls-1 {
        fill: #fff;
        filter: url(#drop-shadow-1);
        stroke: #000;
        stroke-width: 13.9px;
      }
    </style>
    <filter id="drop-shadow-1">
      <feOffset dx="7" dy="7"/>
      <feGaussianBlur result="blur" stdDeviation="5"/>
      <feFlood flood-color="#000" flood-opacity=".75"/>
      <feComposite in2="blur" operator="in"/>
      <feComposite in="SourceGraphic"/>
    </filter>
  </defs>
  <rect class="cls-1" x="15.1" y="15" width="465.8" height="466"/>
  <path d="M444.99,151.86l-185.15-107.64c-6.65-3.9-14.91-3.9-21.66,0L53.02,151.86c-6.65,3.9-10.73,10.93-10.73,18.62v262.68c0,11.88,9.59,21.57,21.57,21.57s21.57-9.6,21.57-21.57v-250.23l163.69-95.19,163.69,95.19v250.32c0,11.88,9.6,21.57,21.57,21.57s21.57-9.6,21.57-21.57V170.48c0-7.7-4.08-14.73-10.73-18.62h-.19Z"/>
  <path d="M248.61,195.74c-51.56,0-90.44,35.18-90.44,81.82,0,7.13,5.79,12.92,12.92,12.92s12.92-5.79,12.92-12.92c.16-20.37,11.84-38.88,30.14-47.8v211.51c0,7.13,5.79,12.92,12.92,12.92s12.92-5.79,12.92-12.92v-107.66h17.22v107.66c0,7.13,5.79,12.92,12.92,12.92s12.92-5.79,12.92-12.92v-211.51c18.31,8.92,29.98,27.44,30.14,47.8,0,7.13,5.79,12.92,12.92,12.92s12.92-5.79,12.92-12.92c0-46.65-38.88-81.82-90.44-81.82h0Z"/>
  <circle cx="249.06" cy="152.74" r="25.84" transform="translate(58.4 374.12) rotate(-80.78)"/>
</svg>