<?xml version="1.0" encoding="UTF-8"?>
<svg xmlns="http://www.w3.org/2000/svg" version="1.1" xmlns:xlink="http://www.w3.org/1999/xlink" viewBox="0 0 510 510">
  <defs>
    <style>
      .cls-1 {
        fill: #fff;
        filter: url(#drop-shadow-1);
        stroke: #000;
        stroke-width: 13.9px;
      }
    </style>
    <filter id="drop-shadow-1">
      <feOffset dx="6.94" dy="6.94"/>
      <feGaussianBlur result="blur" stdDeviation="4.96"/>
      <feFlood flood-color="#000" flood-opacity=".75"/>
      <feComposite in2="blur" operator="in"/>
      <feComposite in="SourceGraphic"/>
    </filter>
  </defs>
  <!-- Generator: Adobe Illustrator 28.6.0, SVG Export Plug-In . SVG Version: 1.2.0 Build 709)  -->
  <g>
    <g id="Capa_1">
      <g id="Capa_1-2" data-name="Capa_1">
        <g id="Capa_1-2">
          <rect class="cls-1" x="15.1" y="15" width="465.8" height="466"/>
        </g>
        <path d="M453.6,117.4v121.7c-19.6,1.8-19.2,15-18.8,30.2.9,38.8.2,77.5.4,116.3,0,10.7-2,20.8-11.3,26.8-6.9,4.4-7.8,9.7-7.4,16.6.6,8.3-1.5,15.9-8.2,21.3-7,5.6-14.7,7.6-23.4,3.8-10.2-4.4-15.1-12.4-14.4-23,.7-10.1-2.9-12.5-12.7-12.4-68.7.4-137.4.4-206.2,0-9,0-14.7,1.1-12.9,11.9.4,2.5,0,5.3-.7,7.8-2.7,10.6-13,18-23.6,17.4-11.8-.7-20.2-9.8-21.9-22.6-.7-5.3,3.7-12.6-5.6-15.3-17.1-5-22.5-17.6-22.3-34.4.4-43.2,0-86.4.2-129.5,0-6,.5-11.4-8.3-11.3-7.7,0-10.3-5.2-10.3-12.5v-104.4c0-5.9,1.6-11.7,7.9-11.7,11.5,0,11-6.9,10.6-14.7-.2-4.4,0-8.8,0-13.2,0-28.4,9.5-37.7,38.3-37.7h293.4c29.6,0,39.4,9.1,38.4,38.6-.5,15.2-.8,28.4,18.8,30.2h0ZM161.7,270.8c18.9,0,37.9-.1,56.8,0,8.7,0,13-3.7,13-12.6,0-34.8-.1-69.6,0-104.4,0-8.9-4.2-12.7-12.9-12.7-37.4,0-74.8.2-112.3,0-9.5,0-13.7,3.9-13.7,13.4,0,34.3,0,68.7,0,103,0,9.4,4.1,13.5,13.6,13.4,18.5-.3,37,0,55.5,0h0ZM337.5,141.3c-18.5,0-37,.2-55.5,0-9.4-.1-13.7,3.8-13.6,13.4.2,34.3.2,68.7,0,103,0,9.6,4.3,13.4,13.7,13.3,37-.2,74-.3,110.9,0,10.2,0,14.4-4,14.3-14.1-.2-33.9-.2-67.8,0-101.7,0-10.1-4.3-14.2-14.4-14-18.5.4-37,.1-55.5.1h.1ZM250,104.2h141.3c13.5,0,16.7-3.8,16-16.2-.7-11.6-8.6-11.5-16.8-11.5H109.3c-2.2,0-4.4,0-6.6.2-6.3.4-9.2,3.9-10,10.1-1.6,12.8,2.3,17.3,16.1,17.4h141.3,0ZM115.1,336.1c-12.7.3-22.4,10.4-22.2,23.2.2,12.6,10.4,22.7,22.8,22.6,12.9,0,23.5-11.1,22.9-24-.5-12.5-11-22.1-23.6-21.8h.1ZM416.5,359.5c.4-12.4-9.2-22.7-21.7-23.4-13.1-.7-23.8,9.1-24.1,22.2-.3,12.4,9.4,22.9,21.6,23.6,12.7.7,23.9-9.6,24.2-22.4h0Z"/>
      </g>
    </g>
  </g>
</svg>