<?xml version="1.0" encoding="UTF-8"?>
<svg xmlns="http://www.w3.org/2000/svg" version="1.1" xmlns:xlink="http://www.w3.org/1999/xlink" viewBox="0 0 516 516">
  <defs>
    <style>
      .cls-1 {
        fill: #0070ff;
      }

      .cls-1, .cls-2 {
        fill-rule: evenodd;
      }

      .cls-2 {
        fill: #fff;
      }

      .cls-3 {
        fill: none;
        filter: url(#drop-shadow-1);
        stroke: #a7a9ac;
        stroke-linecap: round;
        stroke-linejoin: bevel;
        stroke-width: 23.1px;
      }
    </style>
    <filter id="drop-shadow-1">
      <feOffset dx="6.94" dy="6.94"/>
      <feGaussianBlur result="blur" stdDeviation="4.96"/>
      <feFlood flood-color="#000" flood-opacity=".75"/>
      <feComposite in2="blur" operator="in"/>
      <feComposite in="SourceGraphic"/>
    </filter>
  </defs>
  <!-- Generator: Adobe Illustrator 28.6.0, SVG Export Plug-In . SVG Version: 1.2.0 Build 709)  -->
  <g>
    <g id="Capa_1">
      <g>
        <path class="cls-2" d="M251,20c127.6,0,231,103.4,231,231s-103.4,231-231,231S20,378.6,20,251,123.4,20,251,20Z"/>
        <path class="cls-3" d="M251,20c127.6,0,231,103.4,231,231s-103.4,231-231,231S20,378.6,20,251,123.4,20,251,20Z"/>
        <path class="cls-1" d="M260.4,185.4h-18.7v-93.7h18.7v93.7ZM335.3,166.7l74.9,84.3-74.9,84.3v-56.2h-168.6v56.2l-74.9-84.3,74.9-84.3v56.2h168.6v-56.2ZM260.4,410.2h-18.7v-93.6h18.7v93.6Z"/>
      </g>
    </g>
  </g>
</svg>