<?xml version="1.0" encoding="UTF-8"?>
<svg xmlns="http://www.w3.org/2000/svg" version="1.1" xmlns:xlink="http://www.w3.org/1999/xlink" viewBox="0 0 510 510">
  <defs>
    <style>
      .cls-1 {
        filter: url(#drop-shadow-1);
      }

      .cls-2 {
        fill: #fff;
        stroke: #000;
        stroke-width: 13.9px;
      }
    </style>
    <filter id="drop-shadow-1">
      <feOffset dx="6.94" dy="6.94"/>
      <feGaussianBlur result="blur" stdDeviation="4.96"/>
      <feFlood flood-color="#000" flood-opacity=".75"/>
      <feComposite in2="blur" operator="in"/>
      <feComposite in="SourceGraphic"/>
    </filter>
  </defs>
  <!-- Generator: Adobe Illustrator 28.6.0, SVG Export Plug-In . SVG Version: 1.2.0 Build 709)  -->
  <g>
    <g id="Capa_1">
      <g id="Capa_1-2" data-name="Capa_1" class="cls-1">
        <rect class="cls-2" x="15.1" y="15" width="465.8" height="466"/>
      </g>
      <g>
        <path d="M435.6,81c-14.6,0-26.4,11.9-26.5,26.5v141.4l-42.5,42.8c-2.2,4.2-7.4,5.8-11.6,3.6-1-.5-1.8-1.2-2.6-2.1-4.2-4.3-4.2-11.2,0-15.4l35.9-36.5c7.2-7.4,7.2-19.1,0-26.5-7-7.2-18.6-7.3-25.8-.3-.1.1-.2.2-.3.3l-69.6,70.8c-11.1,11.4-17,27-16,42.9h-.2v132.6h79.6v-85.4c5.5-2.7,10.4-6.3,14.7-10.7l83.7-85c4.9-5,7.7-11.7,7.6-18.8V107.6c0-14.6-11.9-26.4-26.5-26.5ZM207.3,285.7l-69.6-70.8c-7-7.2-18.6-7.3-25.8-.3-.1.1-.2.2-.3.3-7.2,7.4-7.2,19.1,0,26.5l35.9,36.5c4.2,4.3,4.2,11.2,0,15.4-4.1,4.2-10.8,4.3-15,.2,0,0-.1-.1-.2-.2l-41.5-44.4V107.6c0-14.6-11.9-26.4-26.5-26.5-14.6,0-26.4,11.9-26.5,26.5v153.8c0,7,2.7,13.8,7.7,18.8l83.7,85c4.3,4.3,9.2,8,14.7,10.7v85.4h79.6v-132.6h-.2c.9-15.9-4.9-31.5-16-42.9Z"/>
        <circle cx="250" cy="116.4" r="79.6"/>
      </g>
    </g>
  </g>
</svg>