<?xml version="1.0" encoding="UTF-8"?>
<svg xmlns="http://www.w3.org/2000/svg" version="1.1" xmlns:xlink="http://www.w3.org/1999/xlink" viewBox="0 0 510 510">
  <defs>
    <style>
      .cls-1 {
        fill: #fff;
        filter: url(#drop-shadow-1);
        stroke: #000;
        stroke-width: 13.9px;
      }
    </style>
    <filter id="drop-shadow-1">
      <feOffset dx="6.94" dy="6.94"/>
      <feGaussianBlur result="blur" stdDeviation="4.96"/>
      <feFlood flood-color="#000" flood-opacity=".75"/>
      <feComposite in2="blur" operator="in"/>
      <feComposite in="SourceGraphic"/>
    </filter>
  </defs>
  <!-- Generator: Adobe Illustrator 28.6.0, SVG Export Plug-In . SVG Version: 1.2.0 Build 709)  -->
  <g>
    <g id="Capa_1">
      <g id="Capa_1-2" data-name="Capa_1">
        <g id="Capa_1-2">
          <g id="Capa_1-2-2" data-name="Capa_1-2">
            <rect class="cls-1" x="15.1" y="15" width="465.8" height="466"/>
          </g>
        </g>
      </g>
      <g>
        <path d="M25.4,368.9c1.1-1.7,2.6-3.3,3.1-5.1,18.3-66.7,116.5-87.2,163.9-28.5,5.2,6.4,8.1,5.1,13.5.4,25.4-22.1,58.5-22.7,82.9-.9,7.1,6.4,10.1,5.7,16.2-1.2,38-42.9,105-43.9,143.6-2.9,11.1,11.8,15.6,26.6,21.9,40.7v22.1c-2.4,8.9-7.1,14.3-17.5,12.9-10.4-1.4-14.6-7.6-15.7-17.3-1.5-12.9-4.9-25.2-16.7-37,1.5,15.6,5.2,27.6,7.8,39.9,2,9.6,4,18.9,1.7,29-5.2,22-18.2,34.4-41.1,36.4h-24.7c-33.8-10.2-44.9-29.8-37.1-64.9,2.7-12.3,6.1-24.4,6.6-37.3-10.8,8.7-13.5,21.1-15.5,33.8-2,12.9-7.4,17.8-19.2,17.5-13.6-.3-18.9-6.4-18.8-22,0,27.7-11.7,42.4-33.3,41.8-21.3-.6-31.9-15.4-30.7-44.6-.9,6.4.1,11.4-2.3,15.9-3,5.7-8,7.9-14,8.7-12.9,1.7-20.3-3.8-22.2-16.8-1.3-9-3.1-17.8-7.7-25.7-1.6-2.7-3.1-6.6-7.1-5.3-3.2,1-2.7,4.7-2.8,7.5-.2,18,0,36-.1,54,0,6.2-.8,12.1-3,18-5.4,14.1-17.5,17-30.2,19.5h-19.8c-24.4-7.4-27.9-12.5-31.3-38.4-2.1-15.5-1.7-30.9-2.1-46.4,0-4.3,1.2-9-2.6-14.2-9.2,8.6-10.8,19.8-12.3,30.7-1.2,8.5-4.4,14.9-13.4,16.9-10.7,2.3-15.1-.5-19.9-12.5,0-8.2,0-16.4,0-24.6Z"/>
        <path d="M25.4,179.6c17.8-20.4,43.2-29.4,65.7-42.5,45.8-26.8,92.2-52.3,138.1-78.8,12.7-7.4,24.2-7.7,37.1-.3,61.7,35.3,123.6,70.3,185.5,105.2,8.3,4.6,13.8,11.3,18.7,18.9v14.7c-13,22.3-26.3,25.9-48.8,13-54.4-30.9-108.8-61.6-163-92.8-7.8-4.5-13.6-4.4-21.4,0-54.2,31.2-108.7,61.9-163,92.7-22.6,12.8-35.9,9.3-48.8-13v-17.2Z"/>
        <path d="M117.8,282.3c-14.5-.2-27.5-13.4-27.5-27.8,0-14.9,14-28.3,28.9-27.6,14.6.6,27.3,14,26.9,28.4-.4,14.5-13.8,27.3-28.2,27Z"/>
        <path d="M377.9,226.9c14.5,0,27.7,13.1,27.8,27.5.1,14.9-13.7,28.4-28.6,27.9-14.6-.4-27.4-13.7-27.2-28.1.3-14.5,13.5-27.4,28-27.3Z"/>
        <path d="M270.5,278.6c-.4,12.7-10.4,22-23.3,21.7-12.7-.4-22.1-10.2-21.8-23.1.2-13.2,10.9-23.2,23.9-22.4,12.7.8,21.6,10.8,21.2,23.8Z"/>
      </g>
    </g>
  </g>
</svg>