<?xml version="1.0" encoding="UTF-8"?>
<svg xmlns="http://www.w3.org/2000/svg" version="1.1" xmlns:xlink="http://www.w3.org/1999/xlink" viewBox="0 0 510 510">
  <defs>
    <style>
      .cls-1 {
        filter: url(#drop-shadow-1);
      }

      .cls-2 {
        fill: #fff;
        stroke: #000;
        stroke-width: 13.9px;
      }
    </style>
    <filter id="drop-shadow-1">
      <feOffset dx="6.94" dy="6.94"/>
      <feGaussianBlur result="blur" stdDeviation="4.96"/>
      <feFlood flood-color="#000" flood-opacity=".75"/>
      <feComposite in2="blur" operator="in"/>
      <feComposite in="SourceGraphic"/>
    </filter>
  </defs>
  <!-- Generator: Adobe Illustrator 28.6.0, SVG Export Plug-In . SVG Version: 1.2.0 Build 709)  -->
  <g>
    <g id="Capa_1">
      <g class="cls-1">
        <g id="Capa_1-2" data-name="Capa_1">
          <g id="Capa_1-2">
            <g id="Capa_1-2-2" data-name="Capa_1-2">
              <g id="Capa_1-2-2">
                <g id="Capa_1-2-2-2" data-name="Capa_1-2-2">
                  <rect class="cls-2" x="15.1" y="15" width="465.8" height="466"/>
                </g>
              </g>
            </g>
          </g>
        </g>
      </g>
      <g>
        <path d="M124.5,212c-5.7,11.4-4.9,23.8-6.8,35.7-1.4,8.2-4.6,14.3-13.8,13-8.2-1.1-10.7-7.4-10.1-14.9,1.6-19.5,3.3-39.1,10-57.7,8.8-24.6,23.8-33.3,55.6-33,30.5.2,45.1,9.1,53.7,33.4,6.6,18.6,8.1,38.2,9.8,57.7.6,7.5-2.1,13.6-10.4,14.6-8.4,1.1-12.3-4.5-13.5-11.8-2.1-12.5-1-25.5-6.7-39.7-3.7,19.4,0,35.9,3.8,52.5,1.6,7.1,5.8,8.3,12.1,8.2,17.9-.2,35.9,1.1,53.6-.4,14.8-1.3,24.3,5.2,33.2,15.1,2.2,2.5,5.5,4.7,4.1,8.5-1.5,3.9-5.5,3.1-8.7,3.1-19,0-38,0-57,0-53.7,0-107.4.4-161-.3-12.8-.2-16,3.8-15.7,16.1.8,35.2.2,70.4.3,105.7,0,9.6-1.1,19.3-13.1,19.3-12,0-13.3-9.6-13.3-19.2,0-42.5.3-85-.1-127.5-.2-15.2,6.4-21.1,21.3-20.6,18.4.6,36.9-.3,55.3.3,9,.3,12.5-3,14.6-11.7,3.5-15.4,5.6-30.7,3.1-46.5Z"/>
        <path d="M345.1,302.5c-5.3,6-3.6,11.7-3.7,16.8-.2,26.3-.1,52.5,0,78.8,0,11.2-3,20.8-16.3,20.7-13.3-.2-15.8-10.1-15.8-21.1,0-34.1.5-68.2-.2-102.3-.3-11.7,4.2-14.6,14.7-13.9,17.8,1.2,40.5-7.1,52,3.1,11.9,10.5,3.1,33.7,3.8,51.3.8,21.2,0,42.5.2,63.7,0,10.9-3.8,19.3-15.8,19.3-12.1,0-15.6-8.6-15.6-19.5.2-26.3.1-52.5,0-78.8,0-5.4,1.6-11.1-3.1-18.1Z"/>
        <path d="M365.7,182.6c-17.5,18.9-31.8,36.9-49,51.7-7.4,6.4-17.9,12-27.9,15.2-14.3,4.5-23.5-4-29.5-15.9-3.3-6.4-5.6-13.4-7.2-20.4-1.3-5.8-2.9-9.7-9.7-7.7-11.4,3.4-13.3-3.5-13.9-12.3-.4-5-1.1-10-1.8-15-3.9-28.9-7.6-25,23-29.8,11.2-1.7,14.3,2.9,14.3,12.1,0,21.8,8.9,40.6,20.6,62.2,15.6-35.2,41.4-48.3,81.2-40.1Z"/>
        <path d="M380.1,245.5c3.5,19.7-6.5,22.7-22.3,21.4-14.7-1.2-29.7-.3-49.5-.3,25.2-27.1,47.3-50.8,69.4-74.5,4.6-4.9,7.9-1.2,11.1,1.9,8.3,8,12.5,18.3,15.5,29.1,4.8,17.2,6.9,34.9,8.2,52.7.7,9.1-.3,17.9-11.2,18.9-11.9,1.1-14.1-8.2-15.3-17.7-1.3-10.3.4-21.1-6-31.6Z"/>
        <path d="M465.5,354.9c0,20.1,0,40.2,0,60.2,0,10.3.5,22.2-13.8,22-13.1-.2-12.6-11.6-12.6-21.3,0-35.1-.1-70.3.1-105.4,0-8.8-.4-15.5-12.1-14.3-3.4.3-12.8,3-8.5-6.4,3-6.6-6.5-20.1,10-19.7,5,.1,10.1.4,15.1,0,15.7-1.3,22.6,5.4,22.1,21.4-.7,21.2-.2,42.4-.2,63.6Z"/>
        <path d="M120.3,110.3c.4-21.1,18.3-38.2,39.2-37.5,20.3.7,37,17.9,37.1,38.1,0,21.1-17.4,38.4-38.5,38.2-21.2-.2-38.2-17.6-37.8-38.8Z"/>
        <path d="M343.2,119.4c8.3,0,16.8.9,25-.2,16.9-2.2,18.4,6.4,15.7,19.7-4.5,22.2-22.1,36.1-44.2,34.5-21.5-1.5-37.2-18.9-38.2-41.2-.4-8.9,1.4-13.7,11.6-13,10,.7,20,.2,30,.1Z"/>
        <path d="M337.6,87.2c10.6,0,21.2.2,31.8,0,9-.3,16-.3,15.8,12.6-.2,12-6.5,11.9-15,11.8-18.9-.2-37.9,0-56.8-.1-4.8,0-10.7,1.6-13.4-4.1-2.8-5.8-9.3-11.7-6.3-17.9,2.4-5.1,10.2-2,15.5-2.2,9.5-.4,18.9-.1,28.4-.1Z"/>
      </g>
    </g>
  </g>
</svg>