<?xml version="1.0" encoding="UTF-8"?>
<svg xmlns="http://www.w3.org/2000/svg" version="1.1" xmlns:xlink="http://www.w3.org/1999/xlink" viewBox="0 0 510 510">
  <defs>
    <style>
      .cls-1 {
        filter: url(#drop-shadow-1);
      }

      .cls-2 {
        fill: #fff;
        stroke: #000;
        stroke-width: 13.9px;
      }
    </style>
    <filter id="drop-shadow-1">
      <feOffset dx="6.94" dy="6.94"/>
      <feGaussianBlur result="blur" stdDeviation="4.96"/>
      <feFlood flood-color="#000" flood-opacity=".75"/>
      <feComposite in2="blur" operator="in"/>
      <feComposite in="SourceGraphic"/>
    </filter>
  </defs>
  <!-- Generator: Adobe Illustrator 28.6.0, SVG Export Plug-In . SVG Version: 1.2.0 Build 709)  -->
  <g>
    <g id="Capa_1">
      <g class="cls-1">
        <g id="Capa_1-2" data-name="Capa_1">
          <g id="Capa_1-2">
            <g id="Capa_1-2-2" data-name="Capa_1-2">
              <g id="Capa_1-2-2">
                <rect class="cls-2" x="15.1" y="15" width="465.8" height="466"/>
              </g>
            </g>
          </g>
        </g>
      </g>
      <path d="M416.8,256c0,49.5.1,99,0,148.5,0,31.4-16.1,50.5-41.7,50.4-25.7,0-41.2-18.8-41.4-50.7-.2-32.2-.7-64.5.2-96.7.4-14.3-3.5-20-18.7-19.7-43.5.9-87,.9-130.4,0-15.5-.3-18.9,5.9-18.5,19.9.8,33,.5,66,.2,99-.3,29.9-16.4,48.3-41.6,48.2-24.9,0-41.4-18.8-41.5-48.4-.2-101.2-.2-202.4,0-303.7,0-29.2,17.2-48.2,42.1-47.8,24.3.4,40.5,18.3,40.9,46.6.5,28.5.7,57,0,85.5-.3,13.3,3.3,18.5,17.6,18.2,44.2-.8,88.5-.9,132.7,0,14.6.3,17.7-5.5,17.3-18.5-.7-27.7-.4-55.5-.1-83.2.3-30.1,16.2-48.5,41.2-48.7,25-.1,41.7,18.5,41.8,48,.3,51,0,102,0,153Z"/>
    </g>
  </g>
</svg>