<?xml version="1.0" encoding="UTF-8"?>
<svg xmlns="http://www.w3.org/2000/svg" version="1.1" xmlns:xlink="http://www.w3.org/1999/xlink" viewBox="0 0 510 510">
  <defs>
    <style>
      .cls-1 {
        fill: #fff;
        filter: url(#drop-shadow-1);
        stroke: #000;
        stroke-width: 13.9px;
      }
    </style>
    <filter id="drop-shadow-1">
      <feOffset dx="6.94" dy="6.94"/>
      <feGaussianBlur result="blur" stdDeviation="4.96"/>
      <feFlood flood-color="#000" flood-opacity=".75"/>
      <feComposite in2="blur" operator="in"/>
      <feComposite in="SourceGraphic"/>
    </filter>
  </defs>
  <!-- Generator: Adobe Illustrator 28.6.0, SVG Export Plug-In . SVG Version: 1.2.0 Build 709)  -->
  <g>
    <g id="Capa_1">
      <rect class="cls-1" x="15.1" y="15" width="465.8" height="466"/>
      <path d="M31.5,286.6c0,64.8,52.5,117.3,117.3,117.3h198.5c64.8,0,117.2-52.5,117.3-117.3H31.5ZM167.2,259.5h288.3c0-34.9-28.3-63.2-63.3-63.1,0,0,0,0,0,0h0c-2.4-32.2-30.5-56.4-62.7-54-7.6.6-15.1,2.6-21.9,6.1-11.5-32.9-47.4-50.2-80.3-38.8-18.2,6.3-32.4,20.6-38.8,38.8-28.9-14.5-64-2.8-78.5,26.1-3.4,6.8-5.5,14.2-6,21.9h0c-34.9,0-63.3,28.2-63.3,63.1,0,0,0,0,0,0h126.7Z"/>
    </g>
  </g>
</svg>