<?xml version="1.0" encoding="UTF-8"?>
<svg xmlns="http://www.w3.org/2000/svg" version="1.1" xmlns:xlink="http://www.w3.org/1999/xlink" viewBox="0 0 510 510">
  <defs>
    <style>
      .cls-1 {
        fill: #fff;
        filter: url(#drop-shadow-1);
        stroke: #000;
        stroke-width: 13.9px;
      }
    </style>
    <filter id="drop-shadow-1">
      <feOffset dx="7" dy="7"/>
      <feGaussianBlur result="blur" stdDeviation="5"/>
      <feFlood flood-color="#000" flood-opacity=".75"/>
      <feComposite in2="blur" operator="in"/>
      <feComposite in="SourceGraphic"/>
    </filter>
  </defs>
  <!-- Generator: Adobe Illustrator 28.6.0, SVG Export Plug-In . SVG Version: 1.2.0 Build 709)  -->
  <g>
    <g id="Capa_1">
      <rect class="cls-1" x="15.1" y="15" width="465.8" height="466"/>
      <g>
        <path d="M433.9,255.2H111.4c-4.2,0-7.6,3.5-7.6,7.6v19h302.5c4.6,0,8.4,3.7,8.4,8.3,0,0,0,0,0,.1v124.8h19.1c4.2,0,7.6-3.4,7.6-7.6v-144.7c0-4.2-3.4-7.6-7.6-7.6Z"/>
        <path d="M389.5,299.7H67c-4.2,0-7.6,3.4-7.6,7.6h0v144.7c0,4.2,3.4,7.6,7.6,7.6h322.5c4.2,0,7.6-3.5,7.6-7.6v-144.7c0-4.2-3.4-7.6-7.6-7.6ZM112.7,397.4c-9.8,0-17.8-8-17.8-17.8s8-17.8,17.8-17.8,17.8,8,17.8,17.8c0,9.8-8,17.7-17.8,17.8ZM228.2,433c-29.4,0-53.3-23.9-53.3-53.3s23.9-53.3,53.3-53.3,53.3,23.9,53.3,53.3c0,29.4-23.9,53.3-53.3,53.3ZM343.7,397.4c-9.8,0-17.8-8-17.8-17.8s8-17.8,17.8-17.8,17.8,8,17.8,17.8c0,9.8-8,17.7-17.8,17.8ZM218.3,141.7l-22.1-5.9c-23.7-6.4-48.1,7.7-54.4,31.4l-1.6,5.8,22.1,5.9c23.7,6.4,48.1-7.7,54.4-31.4,0,0,0,0,0,0l1.6-5.8ZM213.4,192.7l22.1,5.9c23.7,6.4,48.1-7.7,54.4-31.4l1.6-5.8-22.1-5.9c-23.7-6.4-48.1,7.7-54.4,31.4,0,0,0,0,0,0l-1.6,5.8ZM286.6,212.3l22.1,5.9c23.7,6.4,48.1-7.7,54.4-31.4l1.6-5.8-22.1-5.9c-23.7-6.3-48.1,7.7-54.4,31.4l-1.6,5.8ZM202.8,111.4l22.1,5.9,1.6-5.8c6.4-23.7-7.7-48.1-31.4-54.4,0,0,0,0,0,0l-22.1-5.9-1.6,5.8c-6.4,23.7,7.7,48.1,31.4,54.4ZM275.9,131l22.1,5.9,1.6-5.8c6.4-23.7-7.7-48.1-31.4-54.4,0,0,0,0,0,0l-22.1-5.9-1.6,5.9c-6.3,23.7,7.7,48.1,31.4,54.4ZM349.1,150.6l22.1,5.9,1.6-5.9c6.3-23.7-7.7-48.1-31.4-54.4l-22.1-5.9-1.6,5.8c-6.4,23.7,7.7,48.1,31.4,54.4,0,0,0,0,0,0ZM441,188.3c1.8-6.7-2.2-13.7-8.9-15.5,0,0,0,0,0,0l-44.7-12-6.5,24.4,44.7,12c6.7,1.8,13.7-2.2,15.5-8.9,0,0,0,0,0,0ZM85.9,132.3c-6.7-1.8-13.7,2.2-15.5,8.9-1.8,6.7,2.2,13.7,8.9,15.5h0l32.5,8.7c6.7,1.9,13.7-2,15.6-8.7,1.9-6.7-2-13.7-8.7-15.6-.1,0-.2,0-.3,0l-32.5-8.7ZM105.5,59.2l32.5,8.7c6.7,1.8,13.7-2.2,15.5-8.9s-2.2-13.7-8.9-15.5l-32.5-8.7c-6.7-1.8-13.7,2.2-15.5,8.9-1.8,6.7,2.2,13.7,8.9,15.5ZM149.3,123.2c6.7,1.8,13.7-2.2,15.5-8.9,1.8-6.7-2.2-13.7-8.9-15.5h0l-89.4-24c-6.7-1.8-13.7,2.2-15.5,8.9-1.8,6.7,2.2,13.7,8.9,15.5h0l89.4,24Z"/>
      </g>
    </g>
  </g>
</svg>