<?xml version="1.0" encoding="UTF-8"?>
<svg xmlns="http://www.w3.org/2000/svg" version="1.1" viewBox="0 0 513.89 168.08">
  <defs>
    <style>
      .cls-1 {
        fill: #c91619;
      }
    </style>
  </defs>
  <!-- Generator: Adobe Illustrator 28.7.1, SVG Export Plug-In . SVG Version: 1.2.0 Build 142)  -->
  <g>
    <g id="Logo">
      <g>
        <path class="cls-1" d="M140.24,64.14v10.2c-6.8,3.71-14.64,5.56-23.54,5.56-7.23,0-13.36-1.45-18.4-4.36-5.04-2.9-9.02-6.91-11.96-12-2.94-5.1-4.4-10.61-4.4-16.55,0-9.42,3.36-17.35,10.08-23.78,6.72-6.43,15.01-9.64,24.86-9.64,6.8,0,14.35,1.78,22.66,5.33v9.96c-7.57-4.33-14.97-6.49-22.2-6.49s-13.57,2.34-18.47,7.02-7.35,10.54-7.35,17.59,2.41,12.95,7.23,17.52,10.98,6.86,18.49,6.86,15.51-2.41,22.99-7.23Z"/>
        <path class="cls-1" d="M172.69,14.04h6.51l29.03,65.12h-9.49l-8.63-19.19h-27.62l-8.09,19.19h-9.53l27.81-65.12ZM186.31,51.72l-10.45-23.45-9.69,23.45h20.13Z"/>
        <path class="cls-1" d="M215.33,14.41h9.27v56.31h29.15v8.44h-38.42V14.41Z"/>
        <path class="cls-1" d="M261.35,79.15V14.31h20.53c6.18,0,11.11,1.67,14.78,5.01,3.68,3.34,5.52,7.82,5.52,13.44,0,3.77-.94,7.11-2.83,10.01-1.88,2.91-4.46,5.01-7.74,6.33-3.28,1.31-7.97,1.97-14.09,1.97h-6.86v28.09h-9.32ZM280.26,22.56h-9.59v20.25h10.15c3.77,0,6.67-.89,8.71-2.66,2.04-1.78,3.06-4.32,3.06-7.62,0-6.64-4.11-9.96-12.33-9.96Z"/>
      </g>
      <g>
        <path class="cls-1" d="M131.9,98.49h8.03v59.04h-7.27l-39.47-45.47v45.47h-7.95v-59.04h6.85l39.81,45.85v-45.85Z"/>
        <path class="cls-1" d="M149.19,98.49h33.47v7.52h-25.02v18h24.17v7.56h-24.17v18.34h25.82v7.52h-34.27v-58.95Z"/>
        <path class="cls-1" d="M189.08,98.4h49.32v7.52h-20.58v51.6h-8.49v-51.6h-20.24v-7.52Z"/>
        <path class="cls-1" d="M325.05,98.49h8.43l-23.87,59.29h-1.86l-19.3-48.01-19.5,48.01h-1.81l-23.8-59.29h8.52l16.27,40.7,16.38-40.7h7.99l16.46,40.7,16.1-40.7Z"/>
        <path class="cls-1" d="M363.9,97.64c9.12,0,16.72,2.89,22.78,8.66,6.07,5.78,9.1,13.02,9.1,21.72s-3.06,15.91-9.19,21.62c-6.12,5.7-13.84,8.56-23.16,8.56s-16.31-2.85-22.24-8.56c-5.93-5.71-8.89-12.85-8.89-21.45s2.98-16.11,8.95-21.89c5.97-5.78,13.52-8.66,22.64-8.66ZM364.23,105.67c-6.76,0-12.31,2.11-16.66,6.34-4.35,4.23-6.52,9.62-6.52,16.19s2.18,11.66,6.54,15.89c4.36,4.23,9.82,6.34,16.38,6.34s12.08-2.16,16.49-6.47c4.4-4.31,6.61-9.68,6.61-16.1s-2.2-11.52-6.61-15.78c-4.41-4.27-9.82-6.4-16.23-6.4Z"/>
        <path class="cls-1" d="M402.97,157.53v-59.04h14.79c5.97,0,10.71,1.48,14.22,4.44s5.26,6.96,5.26,12c0,3.44-.86,6.41-2.58,8.92-1.72,2.51-4.18,4.38-7.4,5.62,1.89,1.24,3.73,2.93,5.54,5.07,1.8,2.14,4.34,5.87,7.61,11.2,2.06,3.35,3.7,5.87,4.94,7.56l3.13,4.23h-10.06l-2.57-3.89c-.09-.14-.25-.38-.51-.72l-1.65-2.33-2.62-4.31-2.83-4.61c-1.75-2.42-3.34-4.35-4.8-5.79-1.45-1.43-2.76-2.47-3.93-3.1-1.17-.63-3.14-.95-5.9-.95h-2.2v25.69h-8.45ZM413.96,105.67h-2.54v18.64h3.21c4.28,0,7.22-.37,8.81-1.1,1.59-.73,2.83-1.84,3.72-3.32.89-1.48,1.33-3.16,1.33-5.05s-.49-3.54-1.48-5.05-2.37-2.57-4.16-3.19c-1.79-.62-4.75-.93-8.9-.93Z"/>
        <path class="cls-1" d="M488.38,98.49h10.56l-25.61,28.02,31.9,31.02h-11.54l-30.17-29.16v29.16h-8.45v-59.04h8.45v27l24.85-27Z"/>
      </g>
      <path class="cls-1" d="M63.55,60.93c-4-2.79-8.84-3.46-13.2-2.26l-10.69-21.17c1.17-.93,2.23-2.04,3.13-3.33,4.98-7.15,3.22-16.99-3.93-21.97-7.15-4.98-16.99-3.22-21.97,3.93-4.98,7.15-3.22,16.99,3.93,21.97,4.15,2.89,9.19,3.5,13.68,2.12l10.62,21.01c-1.33.99-2.53,2.2-3.53,3.63-4.98,7.15-3.22,16.99,3.93,21.97.55.38,1.11.71,1.69,1.01l-8.61,21.23c-9.8-2.43-20.52,1.21-26.64,9.99-7.92,11.37-5.12,27.02,6.25,34.94,11.37,7.92,27.02,5.13,34.94-6.25,7.92-11.37,5.12-27.02-6.25-34.94-.91-.64-1.86-1.18-2.82-1.68l8.76-21.57c5.54.59,11.23-1.77,14.65-6.67,4.98-7.15,3.22-16.99-3.93-21.97Z"/>
    </g>
  </g>
</svg>