<?xml version="1.0" encoding="UTF-8"?>
<svg version="1.1" xmlns="http://www.w3.org/2000/svg" width="1000" height="193">
<path d="M0 0 C330 0 660 0 1000 0 C1000 63.69 1000 127.38 1000 193 C670 193 340 193 0 193 C0 129.31 0 65.62 0 0 Z " fill="#59595B" transform="translate(0,0)"/>
<path d="M0 0 C59.84615385 0 59.84615385 0 73 9 C73.88558594 9.56847656 73.88558594 9.56847656 74.7890625 10.1484375 C81.75322047 15.18405941 85.63873572 23.73287521 87 32 C87.28662162 35.48469726 87.32509959 38.94237277 87.3125 42.4375 C87.32861328 43.32759766 87.34472656 44.21769531 87.36132812 45.13476562 C87.36852191 54.98306403 84.53407274 63.51245741 78 71 C70.66666667 77 70.66666667 77 67 77 C70.82786779 87.26977966 75.08153089 97.32126288 79.4375 107.375 C84.12046332 118.19139164 88.6696524 129.03692525 93 140 C83.1 140 73.2 140 63 140 C61.75863281 136.96296875 60.51726562 133.9259375 59.23828125 130.796875 C58.02035967 127.81799459 56.80230048 124.83917048 55.58422852 121.86035156 C54.74521781 119.80832691 53.90634757 117.75624481 53.06762695 115.70410156 C48.74292529 105.12287796 44.41695668 94.54312267 40 84 C35.71 83.67 31.42 83.34 27 83 C27 101.81 27 120.62 27 140 C18.09 140 9.18 140 0 140 C0 93.8 0 47.6 0 0 Z " fill="#FCFCFC" transform="translate(26,27)"/>
<path d="M0 0 C8.91 0 17.82 0 27 0 C27 18.48 27 36.96 27 56 C39.54 56 52.08 56 65 56 C65 37.52 65 19.04 65 0 C73.91 0 82.82 0 92 0 C93 1 93 1 93.12304783 3.29386234 C93.12212604 4.31797435 93.12120424 5.34208635 93.12025452 6.39723206 C93.12231651 8.15364517 93.12231651 8.15364517 93.12442017 9.94554138 C93.11902725 11.88977745 93.11902725 11.88977745 93.11352539 13.87329102 C93.11324352 15.24287921 93.11340125 16.61246756 93.1139679 17.98205566 C93.11425588 21.71122948 93.10835909 25.44037141 93.10139394 29.16953778 C93.09516047 33.06264413 93.09455661 36.95575113 93.09336853 40.84886169 C93.09025519 48.22598146 93.08204178 55.60308649 93.07201904 62.98019975 C93.06085797 71.37667543 93.05534747 79.77315179 93.05032361 88.16963303 C93.03985916 105.44643202 93.02151366 122.7232107 93 140 C83.76 140 74.52 140 65 140 C65 120.2 65 100.4 65 80 C52.46 80 39.92 80 27 80 C27 99.8 27 119.6 27 140 C18.09 140 9.18 140 0 140 C0 93.8 0 47.6 0 0 Z " fill="#FBFBFB" transform="translate(451,27)"/>
<path d="M0 0 C11.88 0 23.76 0 36 0 C39.25190609 11.28602702 42.10344428 22.58280481 44.69555664 34.03735352 C46.35681112 41.33256577 48.14518453 48.5805314 50.0625 55.8125 C52.89208105 66.50162548 55.484852 77.23303288 58 88 C59.1956023 93.11649336 60.39284126 98.23259896 61.59210205 103.34823608 C62.11183295 105.56874482 62.62901933 107.78983502 63.14599609 110.01098633 C63.47453675 111.41627153 63.80346739 112.82146562 64.1328125 114.2265625 C64.37014603 115.24138954 64.37014603 115.24138954 64.61227417 116.27671814 C65.75160622 121.09289816 67.04501283 125.84743811 68.47998047 130.58349609 C69 133 69 133 69 139 C60.42 139 51.84 139 43 139 C41.99744846 134.5422262 40.99784254 130.08382794 40 125.625 C39.71382813 124.35398437 39.42765625 123.08296875 39.1328125 121.7734375 C38.72675781 119.95585937 38.72675781 119.95585937 38.3125 118.1015625 C38.06113281 116.98088379 37.80976563 115.86020508 37.55078125 114.70556641 C37 112 37 112 37 110 C24.46 110 11.92 110 -1 110 C-1.33 112.97 -1.66 115.94 -2 119 C-2.33937819 120.67664732 -2.71574729 122.34703867 -3.15625 124 C-3.37410156 124.82371094 -3.59195313 125.64742188 -3.81640625 126.49609375 C-4.15478516 127.73552734 -4.15478516 127.73552734 -4.5 129 C-4.72558594 129.85722656 -4.95117188 130.71445313 -5.18359375 131.59765625 C-6.86113366 137.86113366 -6.86113366 137.86113366 -8 139 C-9.92667507 139.08748207 -11.85651861 139.10697334 -13.78515625 139.09765625 C-14.95498047 139.09443359 -16.12480469 139.09121094 -17.33007812 139.08789062 C-18.56177734 139.07951172 -19.79347656 139.07113281 -21.0625 139.0625 C-22.91584961 139.05573242 -22.91584961 139.05573242 -24.80664062 139.04882812 C-27.87114117 139.03699608 -30.93554721 139.02051173 -34 139 C-32.58010141 130.40845003 -30.60665923 121.99911476 -28.48046875 113.55859375 C-28.1363404 112.18260115 -27.79245837 110.80654692 -27.44880676 109.43043518 C-26.73070649 106.55812323 -26.01020776 103.6864276 -25.2878418 100.81518555 C-24.37621006 97.19118924 -23.46975278 93.56592377 -22.56492424 89.94022369 C-19.37005607 77.14409539 -16.17612712 64.35349993 -12.57621765 51.66389465 C-10.84180759 45.52794042 -9.38322981 39.34804466 -8 33.125 C-5.49077813 22.03945799 -2.79534128 11.01693326 0 0 Z " fill="#FCFCFC" transform="translate(257,28)"/>
<path d="M0 0 C1.04285156 -0.020625 2.08570313 -0.04125 3.16015625 -0.0625 C15.0427614 -0.12183885 25.47579837 2.99718628 34.41796875 11.1015625 C44.24339391 21.61832887 45.375 33.13590585 45.375 47.25 C36.465 47.25 27.555 47.25 18.375 47.25 C17.88 41.31 17.88 41.31 17.375 35.25 C14.25984579 28.76611013 14.25984579 28.76611013 8.375 25.25 C5.69703007 24.97992872 3.17772437 24.83460965 0.5 24.8125 C-0.19480469 24.77962891 -0.88960938 24.74675781 -1.60546875 24.71289062 C-5.38693694 24.67372288 -8.02452555 25.1408782 -11.0078125 27.40234375 C-15.43845253 32.22314461 -15.87574203 36.93484145 -15.91552734 43.32177734 C-15.92224457 44.00230667 -15.92896179 44.682836 -15.93588257 45.38398743 C-15.95477139 47.61804649 -15.95878198 49.85180372 -15.9609375 52.0859375 C-15.96737144 53.65003581 -15.97410024 55.21413293 -15.98110962 56.77822876 C-15.99305933 60.05139962 -15.99679279 63.32446512 -15.99560547 66.59765625 C-15.99540233 70.7760749 -16.02270875 74.95381303 -16.05714989 79.13207054 C-16.07947003 82.36130836 -16.08344147 85.59038367 -16.08238602 88.8196907 C-16.08473411 90.35936453 -16.09351279 91.89904338 -16.10905075 93.43864059 C-16.2505698 104.94025787 -16.2505698 104.94025787 -11.625 115.25 C-7.82770287 118.49018946 -4.58922103 118.65693304 0.3125 118.625 C2.08947266 118.63660156 2.08947266 118.63660156 3.90234375 118.6484375 C7.7136907 118.2111401 10.12590789 117.2640571 13.375 115.25 C17.04572103 109.42747698 17.49594183 103.68703207 17.9375 96.9375 C18.081875 94.730625 18.22625 92.52375 18.375 90.25 C27.285 90.25 36.195 90.25 45.375 90.25 C46.04175244 105.36305533 45.3398149 119.49347611 35.06640625 131.64453125 C23.35834707 142.75772368 9.46493505 143.76889869 -5.9140625 143.52734375 C-16.30395878 143.1105036 -26.02024688 138.95712304 -33.3359375 131.5078125 C-40.17566591 123.14042902 -43.72012233 112.79943448 -43.80200195 102.11743164 C-43.80857315 101.40621155 -43.81514435 100.69499146 -43.82191467 99.96221924 C-43.84159829 97.61153034 -43.85330444 95.26090545 -43.86328125 92.91015625 C-43.86735678 92.10260832 -43.8714323 91.29506039 -43.87563133 90.46304131 C-43.89647949 86.18166233 -43.91078188 81.9003152 -43.92016602 77.61889648 C-43.93117717 73.22797155 -43.96551857 68.83756084 -44.00533772 64.44681644 C-44.03168246 61.04496926 -44.03987394 57.64324076 -44.04344749 54.24130058 C-44.04827415 52.6248067 -44.059774 51.00831669 -44.07848549 49.3919239 C-44.23871047 34.62290784 -42.205392 21.55158874 -31.8125 10.28515625 C-22.65860067 1.55573209 -12.11900164 0.05861669 0 0 Z " fill="#FCFCFC" transform="translate(382.625,25.75)"/>
<path d="M0 0 C24.42 0 48.84 0 74 0 C74 7.59 74 15.18 74 23 C58.49 23 42.98 23 27 23 C27 33.56 27 44.12 27 55 C38.88 55 50.76 55 63 55 C63 62.92 63 70.84 63 79 C51.12 79 39.24 79 27 79 C27 90.88 27 102.76 27 115 C43.17 115 59.34 115 76 115 C76 122.92 76 130.84 76 139 C50.92 139 25.84 139 0 139 C0 93.13 0 47.26 0 0 Z " fill="#FDFDFD" transform="translate(135,28)"/>
<path d="M0 0 C3.155625 -0.061875 6.31125 -0.12375 9.5625 -0.1875 C10.5429126 -0.21481201 11.5233252 -0.24212402 12.53344727 -0.27026367 C18.82647875 -0.3296018 23.75230158 0.26931187 28.7421875 4.46484375 C33.70495267 10.91643847 33.58338174 17.05142386 33 25 C31.90229987 29.54415567 29.76247265 33.17814551 26 36 C19 38 19 38 0 38 C0 25.46 0 12.92 0 0 Z " fill="#5B5B5D" transform="translate(53,50)"/>
<path d="M0 0 C0.66 0 1.32 0 2 0 C3.55256445 6.56433726 5.10031369 13.12979656 6.64477539 19.69604492 C7.17036838 21.928075 7.69704905 24.15984925 8.22485352 26.39135742 C8.98482152 29.60528431 9.7408287 32.82012137 10.49609375 36.03515625 C10.73154404 37.02709488 10.96699432 38.01903351 11.20957947 39.04103088 C11.42973221 39.98147751 11.64988495 40.92192413 11.87670898 41.89086914 C12.06990219 42.71027481 12.2630954 43.52968048 12.46214294 44.37391663 C13.114126 47.55721939 13.54046766 50.78327365 14 54 C5.42 54 -3.16 54 -12 54 C-10.73746355 46.42478131 -9.42492692 39.07196702 -7.6171875 31.640625 C-7.39805695 30.72537048 -7.17892639 29.81011597 -6.95315552 28.86712646 C-6.26430039 25.99380627 -5.56976672 23.12189582 -4.875 20.25 C-4.40196422 18.28134116 -3.92930489 16.31259182 -3.45703125 14.34375 C-2.3090253 9.56144555 -1.15593081 4.78039484 0 0 Z " fill="#5B5B5D" transform="translate(274,60)"/>
<path d="M0 0 C2.9375 1 2.9375 1 5 2 C5.66 1.34 6.32 0.68 7 0 C7.99 0 8.98 0 10 0 C10 1.98 10 3.96 10 6 C8.68 6 7.36 6 6 6 C6.04640625 6.74765625 6.0928125 7.4953125 6.140625 8.265625 C6.43824701 16.38645418 6.43824701 16.38645418 4.125 19.625 C0.50560051 21.96696438 -1.68869274 22.09372407 -6 22 C-6 22.66 -6 23.32 -6 24 C-4.824375 23.938125 -3.64875 23.87625 -2.4375 23.8125 C2.13681391 23.83691805 5.07558236 24.59729532 9 27 C10.1875 29.9375 10.1875 29.9375 10 33 C8.15858081 35.34939689 6.6600106 36.6699947 4 38 C1.71167189 38.14911411 -0.58199707 38.22139705 -2.875 38.25 C-4.10992188 38.27578125 -5.34484375 38.3015625 -6.6171875 38.328125 C-10.14948054 37.98550073 -11.4765715 37.40930359 -14 35 C-13.835 34.4225 -13.67 33.845 -13.5 33.25 C-12.85537969 30.73335631 -12.85537969 30.73335631 -13 27 C-12.33333333 22.33333333 -12.33333333 22.33333333 -10 20 C-10.48597656 19.44183594 -10.97195313 18.88367188 -11.47265625 18.30859375 C-14.02381252 14.45249821 -13.67200663 10.46559241 -13 6 C-9.42154419 0.15518884 -6.65599441 -0.33844039 0 0 Z " fill="#F3F3F4" transform="translate(757,36)"/>
<path d="M0 0 C1.98 0 3.96 0 6 0 C6 0.99 6 1.98 6 3 C6.515625 2.484375 7.03125 1.96875 7.5625 1.4375 C11.01613434 -0.59925871 13.19031889 0.08285455 17 1 C17.66 1.66 18.32 2.32 19 3 C19.37125 2.505 19.7425 2.01 20.125 1.5 C22 0 22 0 25 -0.375 C28 0 28 0 29.66918945 1.1496582 C31.57233903 3.7957728 31.34029647 5.74640787 31.29296875 8.98046875 C31.28330078 10.14384766 31.27363281 11.30722656 31.26367188 12.50585938 C31.23853516 13.72080078 31.21339844 14.93574219 31.1875 16.1875 C31.16719727 18.02731445 31.16719727 18.02731445 31.14648438 19.90429688 C31.11108741 22.93663664 31.0617076 25.96809996 31 29 C28.69 29 26.38 29 24 29 C24 21.08 24 13.16 24 5 C22.02 5.99 22.02 5.99 20 7 C19.67 14.26 19.34 21.52 19 29 C16.69 29 14.38 29 12 29 C12 21.08 12 13.16 12 5 C10.35 5.33 8.7 5.66 7 6 C7 13.26 7 20.52 7 28 C4.69 28 2.38 28 0 28 C0 18.76 0 9.52 0 0 Z " fill="#F3F3F3" transform="translate(583,87)"/>
<path d="M0 0 C2.31 0 4.62 0 7 0 C7.33 0.66 7.66 1.32 8 2 C8.99 1.34 9.98 0.68 11 0 C14.62683775 -0.37198336 16.87350101 0.14725986 20 2 C20.99 1.34 21.98 0.68 23 0 C26.5625 0.1875 26.5625 0.1875 30 1 C32.29755922 4.44633882 32.23643976 5.71068391 32.1953125 9.76171875 C32.18886719 10.87998047 32.18242188 11.99824219 32.17578125 13.15039062 C32.15902344 14.31763672 32.14226563 15.48488281 32.125 16.6875 C32.11597656 17.86634766 32.10695313 19.04519531 32.09765625 20.25976562 C32.07406423 23.17338026 32.0411454 26.08658892 32 29 C29.69 29 27.38 29 25 29 C25 21.08 25 13.16 25 5 C23.35 5.66 21.7 6.32 20 7 C19.67 14.26 19.34 21.52 19 29 C17.02 29 15.04 29 13 29 C12.67 21.41 12.34 13.82 12 6 C10.68 6.33 9.36 6.66 8 7 C7.67 14.26 7.34 21.52 7 29 C4.69 29 2.38 29 0 29 C0 19.43 0 9.86 0 0 Z " fill="#F5F5F5" transform="translate(672,36)"/>
<path d="M0 0 C2.31 0 4.62 0 7 0 C7.33 0.66 7.66 1.32 8 2 C8.99 1.34 9.98 0.68 11 0 C14.62683775 -0.37198336 16.87350101 0.14725986 20 2 C20.99 1.34 21.98 0.68 23 0 C29.56603774 0.56603774 29.56603774 0.56603774 31 2 C31.08748207 3.92667507 31.10697334 5.85651861 31.09765625 7.78515625 C31.09443359 8.95498047 31.09121094 10.12480469 31.08789062 11.33007812 C31.07951172 12.56177734 31.07113281 13.79347656 31.0625 15.0625 C31.05798828 16.29806641 31.05347656 17.53363281 31.04882812 18.80664062 C31.03699608 21.87114117 31.02051173 24.93554721 31 28 C29.02 28 27.04 28 25 28 C24.67 20.74 24.34 13.48 24 6 C22.68 6.33 21.36 6.66 20 7 C19.67 13.93 19.34 20.86 19 28 C16.69 28 14.38 28 12 28 C12 20.41 12 12.82 12 5 C10.02 5.99 10.02 5.99 8 7 C7.67 14.26 7.34 21.52 7 29 C4.69 29 2.38 29 0 29 C0 19.43 0 9.86 0 0 Z " fill="#F3F3F3" transform="translate(631,138)"/>
<path d="M0 0 C0 1.98 0 3.96 0 6 C-1.32 6.33 -2.64 6.66 -4 7 C-4.33 8.32 -4.66 9.64 -5 11 C-2.69 11 -0.38 11 2 11 C1.938125 9.741875 1.87625 8.48375 1.8125 7.1875 C1.83065617 4.62294156 1.8484013 3.28536227 3.0625 1 C6.02087678 -0.52690415 8.73716599 -0.18468872 12 0 C12 1.98 12 3.96 12 6 C11.01 6.33 10.02 6.66 9 7 C8.26676204 9.01508358 8.26676204 9.01508358 8 11 C9.32 11 10.64 11 12 11 C12 12.65 12 14.3 12 16 C10.68 16 9.36 16 8 16 C8 22.93 8 29.86 8 37 C6.02 37 4.04 37 2 37 C2 30.07 2 23.14 2 16 C0.02 16 -1.96 16 -4 16 C-4 22.93 -4 29.86 -4 37 C-6.31 37 -8.62 37 -11 37 C-11 30.07 -11 23.14 -11 16 C-11.99 16 -12.98 16 -14 16 C-14 14.35 -14 12.7 -14 11 C-13.01 11 -12.02 11 -11 11 C-11.061875 9.741875 -11.12375 8.48375 -11.1875 7.1875 C-11.16521115 4.66886049 -11.13502197 3.27004394 -10 1 C-6.72032242 -0.63983879 -3.62861311 -0.17845638 0 0 Z " fill="#F8F8F8" transform="translate(731,78)"/>
<path d="M0 0 C2.87029869 1.79393668 4.49131638 2.98263276 6 6 C6.17759374 8.78618371 6.2775623 11.52447188 6.3125 14.3125 C6.34150391 15.07240234 6.37050781 15.83230469 6.40039062 16.61523438 C6.44542803 20.60277719 6.3002138 22.52770488 4.10546875 25.98046875 C0.62236712 29.32140296 -2.06514128 29.38947574 -6.73828125 29.359375 C-10.32520929 28.78943134 -11.86838894 26.79773951 -14 24 C-15.49357569 21.01284862 -15.22503435 17.96112064 -15.25 14.6875 C-15.27578125 13.37136719 -15.3015625 12.05523437 -15.328125 10.69921875 C-14.98528315 6.83408499 -14.36079233 5.02821259 -12 2 C-7.98141405 -0.6790573 -4.72358279 -0.69610694 0 0 Z " fill="#F5F5F5" transform="translate(943,138)"/>
<path d="M0 0 C2.87029869 1.79393668 4.49131638 2.98263276 6 6 C6.17759374 8.78618371 6.2775623 11.52447188 6.3125 14.3125 C6.34150391 15.07240234 6.37050781 15.83230469 6.40039062 16.61523438 C6.44495002 20.56045508 6.283718 22.53842893 4.16796875 25.98046875 C0.77319473 29.14280779 -2.44188131 29.33938529 -6.99609375 29.2890625 C-10.1795833 28.82984568 -11.84225238 27.2885202 -14 25 C-15.21791109 21.34626672 -15.26104675 17.93254014 -15.3125 14.125 C-15.34150391 13.41730469 -15.37050781 12.70960937 -15.40039062 11.98046875 C-15.44541536 8.26073288 -15.13563853 6.21086898 -13.10546875 3.0546875 C-9.21152502 -0.74533922 -5.23143434 -0.67764693 0 0 Z " fill="#F5F5F5" transform="translate(633,87)"/>
<path d="M0 0 C3.58552881 1.63687185 4.79315055 2.68972583 7 6 C7.22216068 8.67169858 7.32452645 11.20512871 7.3125 13.875 C7.32861328 14.58269531 7.34472656 15.29039063 7.36132812 16.01953125 C7.36553722 20.5401003 6.81139058 23.43144334 4 27 C-0.02314866 29.68209911 -3.27219919 29.68843415 -8 29 C-11.49890004 26.88608123 -12.70578686 25.88263941 -14 22 C-14.17398206 19.35889523 -14.27679015 16.76752888 -14.3125 14.125 C-14.34150391 13.41730469 -14.37050781 12.70960937 -14.40039062 11.98046875 C-14.44541536 8.26073288 -14.13563853 6.21086898 -12.10546875 3.0546875 C-8.44591144 -0.51660591 -4.93010191 -0.53937775 0 0 Z " fill="#F6F6F6" transform="translate(646,36)"/>
<path d="M0 0 C2.31 0 4.62 0 7 0 C7 3.63 7 7.26 7 11 C7.99 10.34 8.98 9.68 10 9 C13.5 8.625 13.5 8.625 17 9 C19.27736417 11.21949002 19.94789198 12.57940047 20.34057617 15.74902344 C20.32486572 16.77543945 20.30915527 17.80185547 20.29296875 18.859375 C20.28330078 19.97441406 20.27363281 21.08945313 20.26367188 22.23828125 C20.23853516 23.39714844 20.21339844 24.55601562 20.1875 25.75 C20.16719727 27.51150391 20.16719727 27.51150391 20.14648438 29.30859375 C20.1111478 32.20619298 20.06180979 35.10286427 20 38 C17.69 38 15.38 38 13 38 C12.67 30.41 12.34 22.82 12 15 C10.68 15.33 9.36 15.66 8 16 C7.67 22.93 7.34 29.86 7 37 C4.69 37 2.38 37 0 37 C0 24.79 0 12.58 0 0 Z " fill="#F1F1F1" transform="translate(583,129)"/>
<path d="M0 0 C2.76171875 1.265625 2.76171875 1.265625 5 4 C5.62761322 8.09616539 5.46826723 12.11857376 5.3125 16.25 C5.28994141 17.37664062 5.26738281 18.50328125 5.24414062 19.6640625 C5.18524254 22.44405232 5.10304201 25.22135332 5 28 C4.37351562 27.98839844 3.74703125 27.97679687 3.1015625 27.96484375 C1.87566406 27.95130859 1.87566406 27.95130859 0.625 27.9375 C-0.59316406 27.92009766 -0.59316406 27.92009766 -1.8359375 27.90234375 C-4.04937142 27.85533666 -4.04937142 27.85533666 -6 29 C-9.5817622 29.38932198 -11.36281721 29.43596718 -14.375 27.375 C-16.51323431 24.24988831 -16.6829669 22.71837535 -16 19 C-12.90567077 15.08658362 -9.59022456 12.89596232 -5 11 C-4.01 11 -3.02 11 -2 11 C-2 9.35 -2 7.7 -2 6 C-4.47266765 6.34444881 -4.47266765 6.34444881 -7 7 C-7.33 7.66 -7.66 8.32 -8 9 C-10.31 9 -12.62 9 -15 9 C-14.72608098 5.7129718 -14.18168017 4.21006769 -12 1.6875 C-8.03917399 -0.54046463 -4.4512785 -1.0365991 0 0 Z " fill="#F4F4F4" transform="translate(808,138)"/>
<path d="M0 0 C2.76171875 1.265625 2.76171875 1.265625 5 4 C5.62761322 8.09616539 5.46826723 12.11857376 5.3125 16.25 C5.28994141 17.37664062 5.26738281 18.50328125 5.24414062 19.6640625 C5.18524254 22.44405232 5.10304201 25.22135332 5 28 C3.02 28 1.04 28 -1 28 C-1 27.34 -1 26.68 -1 26 C-1.70125 26.495 -2.4025 26.99 -3.125 27.5 C-6.47321887 29.2468968 -8.2758163 29.55466566 -12 29 C-15.05623277 26.90889337 -15.86463014 25.70693151 -16.5625 22.0625 C-15.80305135 17.92772399 -14.24602305 16.61093159 -11 14 C-7.20549593 11.7542731 -5.46379252 11 -1 11 C-1.33 9.68 -1.66 8.36 -2 7 C-3.65 7 -5.3 7 -7 7 C-7.33 7.66 -7.66 8.32 -8 9 C-10.31 9 -12.62 9 -15 9 C-14.72608098 5.7129718 -14.18168017 4.21006769 -12 1.6875 C-8.03917399 -0.54046463 -4.4512785 -1.0365991 0 0 Z " fill="#F6F6F6" transform="translate(869,138)"/>
<path d="M0 0 C3.58552881 1.63687185 4.79315055 2.68972583 7 6 C7.26402861 9.35316337 7.08751723 12.63058658 7 16 C2.38 16 -2.24 16 -7 16 C-6.67 17.98 -6.34 19.96 -6 22 C-4.35 22 -2.7 22 -1 22 C-0.67 21.34 -0.34 20.68 0 20 C1.98 20 3.96 20 6 20 C6.36585366 24.51219512 6.36585366 24.51219512 4.6875 26.75 C0.94094284 29.52522752 -3.51925302 29.64634557 -8 29 C-11.44312714 26.8755173 -12.71617547 25.85147359 -14 22 C-14.17398206 19.35889523 -14.27679015 16.76752888 -14.3125 14.125 C-14.34150391 13.41730469 -14.37050781 12.70960937 -14.40039062 11.98046875 C-14.44541536 8.26073288 -14.13563853 6.21086898 -12.10546875 3.0546875 C-8.44591144 -0.51660591 -4.93010191 -0.53937775 0 0 Z " fill="#F5F5F6" transform="translate(854,87)"/>
<path d="M0 0 C2.76171875 1.265625 2.76171875 1.265625 5 4 C5.62761322 8.09616539 5.46826723 12.11857376 5.3125 16.25 C5.28994141 17.37664062 5.26738281 18.50328125 5.24414062 19.6640625 C5.18524254 22.44405232 5.10304201 25.22135332 5 28 C2 28 -1 28 -4 28 C-4.66 28.33 -5.32 28.66 -6 29 C-11.17431193 29.44036697 -11.17431193 29.44036697 -13.875 28 C-15.70691567 24.74326103 -15.868477 21.55728179 -15 18 C-12.08189258 14.94925134 -8.99156583 12.46357414 -5 11 C-3.68 11 -2.36 11 -1 11 C-1.66 9.35 -2.32 7.7 -3 6 C-4.97536745 6.34786708 -4.97536745 6.34786708 -7 7 C-7.33 7.66 -7.66 8.32 -8 9 C-10.31 9 -12.62 9 -15 9 C-14.72608098 5.7129718 -14.18168017 4.21006769 -12 1.6875 C-8.03917399 -0.54046463 -4.4512785 -1.0365991 0 0 Z " fill="#F8F8F8" transform="translate(755,138)"/>
<path d="M0 0 C2.76171875 1.265625 2.76171875 1.265625 5 4 C5.62761322 8.09616539 5.46826723 12.11857376 5.3125 16.25 C5.28994141 17.37664062 5.26738281 18.50328125 5.24414062 19.6640625 C5.18524254 22.44405232 5.10304201 25.22135332 5 28 C2 28 -1 28 -4 28 C-4.66 28.33 -5.32 28.66 -6 29 C-11.17431193 29.44036697 -11.17431193 29.44036697 -13.875 28 C-15.70691567 24.74326103 -15.868477 21.55728179 -15 18 C-12.08189258 14.94925134 -8.99156583 12.46357414 -5 11 C-3.68 11 -2.36 11 -1 11 C-1.66 9.35 -2.32 7.7 -3 6 C-4.97536745 6.34786708 -4.97536745 6.34786708 -7 7 C-7.33 7.66 -7.66 8.32 -8 9 C-10.31 9 -12.62 9 -15 9 C-14.72608098 5.7129718 -14.18168017 4.21006769 -12 1.6875 C-8.03917399 -0.54046463 -4.4512785 -1.0365991 0 0 Z " fill="#F8F8F8" transform="translate(681,138)"/>
<path d="M0 0 C4.56944444 2.13888889 4.56944444 2.13888889 6 5 C6.1377685 8.67015275 6.04271961 12.32611348 6 16 C1.38 16 -3.24 16 -8 16 C-7.67 18.31 -7.34 20.62 -7 23 C-5.02 23 -3.04 23 -1 23 C-0.67 22.01 -0.34 21.02 0 20 C1.98 20 3.96 20 6 20 C5.63870968 25.41935484 5.63870968 25.41935484 2.9375 27.875 C-0.83744394 29.32072321 -4.00940379 29.74974838 -8 29 C-10.8100346 27.20636089 -12.50940468 25.98119065 -14 23 C-14.23049806 20.04437304 -14.36997612 17.14690885 -14.4375 14.1875 C-14.48326172 13.37990234 -14.52902344 12.57230469 -14.57617188 11.74023438 C-14.68550339 5.93615723 -14.68550339 5.93615723 -12.77612305 3.32861328 C-8.33675951 -0.60085644 -5.59033977 -0.70988442 0 0 Z " fill="#F7F7F8" transform="translate(672,87)"/>
<path d="M0 0 C4.56944444 2.13888889 4.56944444 2.13888889 6 5 C6.1377685 8.67015275 6.04271961 12.32611348 6 16 C1.38 16 -3.24 16 -8 16 C-7.67 18.31 -7.34 20.62 -7 23 C-4.02934491 22.65772428 -4.02934491 22.65772428 -1 22 C-0.67 21.34 -0.34 20.68 0 20 C1.98 20 3.96 20 6 20 C5.63870968 25.41935484 5.63870968 25.41935484 2.9375 27.875 C-0.83744394 29.32072321 -4.00940379 29.74974838 -8 29 C-10.8100346 27.20636089 -12.50940468 25.98119065 -14 23 C-14.17759374 20.21381629 -14.2775623 17.47552812 -14.3125 14.6875 C-14.34150391 13.92759766 -14.37050781 13.16769531 -14.40039062 12.38476562 C-14.44542803 8.39722281 -14.3002138 6.47229512 -12.10546875 3.01953125 C-8.43340959 -0.50264795 -4.91139682 -0.54571076 0 0 Z " fill="#F8F8F8" transform="translate(709,87)"/>
<path d="M0 0 C4.46145576 2.31039673 4.46145576 2.31039673 6 5 C6.50322952 8.81169596 6.27996691 12.12712444 6 16 C1.38 16 -3.24 16 -8 16 C-7.67 17.98 -7.34 19.96 -7 22 C-5.02 22 -3.04 22 -1 22 C-0.67 21.34 -0.34 20.68 0 20 C1.98 20 3.96 20 6 20 C5.63870968 25.41935484 5.63870968 25.41935484 2.9375 27.875 C-0.73563314 29.28173184 -4.18536603 30.04850699 -8 29 C-13.5508708 25.64648975 -13.5508708 25.64648975 -14.57592773 21.88867188 C-14.80925212 19.39919095 -14.81888476 16.99898605 -14.75 14.5 C-14.77320313 13.65824219 -14.79640625 12.81648438 -14.8203125 11.94921875 C-14.76440237 6.03206282 -14.76440237 6.03206282 -12.75195312 3.31494141 C-8.61447253 -0.34383321 -5.23951725 -1.23710824 0 0 Z " fill="#F9F9F9" transform="translate(759,87)"/>
<path d="M0 0 C2.31 0 4.62 0 7 0 C7 0.66 7 1.32 7 2 C7.53625 1.67 8.0725 1.34 8.625 1 C11.62934544 -0.26498755 13.76767442 -0.34386442 17 0 C18.6652832 1.14575195 18.6652832 1.14575195 20 3 C20.34057617 5.72729492 20.34057617 5.72729492 20.29296875 8.98046875 C20.28330078 10.14384766 20.27363281 11.30722656 20.26367188 12.50585938 C20.23853516 13.72080078 20.21339844 14.93574219 20.1875 16.1875 C20.16719727 18.02731445 20.16719727 18.02731445 20.14648438 19.90429688 C20.11108741 22.93663664 20.0617076 25.96809996 20 29 C17.69 29 15.38 29 13 29 C12.67 21.41 12.34 13.82 12 6 C10.68 6.33 9.36 6.66 8 7 C7.67 14.26 7.34 21.52 7 29 C4.69 29 2.38 29 0 29 C0 19.43 0 9.86 0 0 Z " fill="#F1F1F1" transform="translate(953,138)"/>
<path d="M0 0 C2.31 0 4.62 0 7 0 C7.33 7.59 7.66 15.18 8 23 C9.32 22.67 10.64 22.34 12 22 C12.33 14.74 12.66 7.48 13 0 C15.31 0 17.62 0 20 0 C20 9.57 20 19.14 20 29 C17.69 29 15.38 29 13 29 C12.67 28.34 12.34 27.68 12 27 C11.01 27.66 10.02 28.32 9 29 C6 29.375 6 29.375 3 29 C0.75354948 26.76964953 0.05079218 25.40997848 -0.34057617 22.25097656 C-0.32486572 21.22456055 -0.30915527 20.19814453 -0.29296875 19.140625 C-0.28330078 18.02558594 -0.27363281 16.91054687 -0.26367188 15.76171875 C-0.23853516 14.60285156 -0.21339844 13.44398438 -0.1875 12.25 C-0.17396484 11.07566406 -0.16042969 9.90132812 -0.14648438 8.69140625 C-0.1111478 5.79380702 -0.06180979 2.89713573 0 0 Z " fill="#F2F2F2" transform="translate(607,138)"/>
<path d="M0 0 C2.31 0 4.62 0 7 0 C7.33 0.66 7.66 1.32 8 2 C8.99 1.34 9.98 0.68 11 0 C16.20944001 -0.54265 16.20944001 -0.54265 18.66918945 1.14575195 C20.57052737 3.79492852 20.34032184 5.74467404 20.29296875 8.98046875 C20.28330078 10.14384766 20.27363281 11.30722656 20.26367188 12.50585938 C20.23853516 13.72080078 20.21339844 14.93574219 20.1875 16.1875 C20.16719727 18.02731445 20.16719727 18.02731445 20.14648438 19.90429688 C20.11108741 22.93663664 20.0617076 25.96809996 20 29 C17.69 29 15.38 29 13 29 C12.67 21.41 12.34 13.82 12 6 C10.68 6.33 9.36 6.66 8 7 C7.67 13.93 7.34 20.86 7 28 C4.69 28 2.38 28 0 28 C0 18.76 0 9.52 0 0 Z " fill="#F3F3F3" transform="translate(691,138)"/>
<path d="M0 0 C2.23629498 2.23596636 2.94942593 3.5917821 3.34057617 6.74902344 C3.32486572 7.77543945 3.30915527 8.80185547 3.29296875 9.859375 C3.28330078 10.97441406 3.27363281 12.08945312 3.26367188 13.23828125 C3.23853516 14.39714844 3.21339844 15.55601563 3.1875 16.75 C3.16719727 18.51150391 3.16719727 18.51150391 3.14648438 20.30859375 C3.1111478 23.20619298 3.06180979 26.10286427 3 29 C0.69 29 -1.62 29 -4 29 C-4.33 21.41 -4.66 13.82 -5 6 C-6.32 6.33 -7.64 6.66 -9 7 C-9.33 14.26 -9.66 21.52 -10 29 C-12.31 29 -14.62 29 -17 29 C-17 19.76 -17 10.52 -17 1 C-15.02 1 -13.04 1 -11 1 C-11 1.66 -11 2.32 -11 3 C-10.29875 2.505 -9.5975 2.01 -8.875 1.5 C-5.54698146 -0.2363575 -3.70048746 -0.56311766 0 0 Z " fill="#F2F2F2" transform="translate(738,36)"/>
<path d="M0 0 C2.27102714 2.22363918 2.94797287 3.58005345 3.34057617 6.74902344 C3.32486572 7.77543945 3.30915527 8.80185547 3.29296875 9.859375 C3.28330078 10.97441406 3.27363281 12.08945313 3.26367188 13.23828125 C3.23853516 14.39714844 3.21339844 15.55601562 3.1875 16.75 C3.16719727 18.51150391 3.16719727 18.51150391 3.14648438 20.30859375 C3.1111478 23.20619298 3.06180979 26.10286427 3 29 C0.69 29 -1.62 29 -4 29 C-4.33 21.41 -4.66 13.82 -5 6 C-6.32 6.33 -7.64 6.66 -9 7 C-9.33 13.93 -9.66 20.86 -10 28 C-12.31 28 -14.62 28 -17 28 C-17 19.09 -17 10.18 -17 1 C-15.02 1 -13.04 1 -11 1 C-11 1.66 -11 2.32 -11 3 C-10.484375 2.505 -9.96875 2.01 -9.4375 1.5 C-6.08965651 -0.56021138 -3.85985753 -0.49125459 0 0 Z " fill="#F2F2F2" transform="translate(835,138)"/>
<path d="M0 0 C3.125 0.25 3.125 0.25 4.80200195 1.3918457 C6.69094894 4.0448768 6.4652721 5.99807314 6.41796875 9.23046875 C6.40830078 10.39384766 6.39863281 11.55722656 6.38867188 12.75585938 C6.36353516 13.97080078 6.33839844 15.18574219 6.3125 16.4375 C6.29219727 18.27731445 6.29219727 18.27731445 6.27148438 20.15429688 C6.23608741 23.18663664 6.1867076 26.21809996 6.125 29.25 C4.145 29.25 2.165 29.25 0.125 29.25 C-0.205 21.66 -0.535 14.07 -0.875 6.25 C-2.855 6.58 -4.835 6.91 -6.875 7.25 C-6.875 14.51 -6.875 21.77 -6.875 29.25 C-8.855 29.25 -10.835 29.25 -12.875 29.25 C-12.875 20.01 -12.875 10.77 -12.875 1.25 C-9.875 1.25 -6.875 1.25 -3.875 1.25 C-2.875 0.25 -2.875 0.25 0 0 Z " fill="#F9FAFA" transform="translate(608.875,35.75)"/>
<path d="M0 0 C0.77085937 -0.01417969 1.54171875 -0.02835938 2.3359375 -0.04296875 C4.91248088 0.21644432 6.44925673 0.79409846 8.625 2.1875 C10.7769437 5.41541555 10.82586443 6.47150809 10.625 10.1875 C8.315 10.1875 6.005 10.1875 3.625 10.1875 C3.295 9.1975 2.965 8.2075 2.625 7.1875 C0.975 7.1875 -0.675 7.1875 -2.375 7.1875 C-2.705 12.1375 -3.035 17.0875 -3.375 22.1875 C-1.395 22.1875 0.585 22.1875 2.625 22.1875 C3.285 20.8675 3.945 19.5475 4.625 18.1875 C6.605 18.1875 8.585 18.1875 10.625 18.1875 C10.39428323 22.1865906 10.18856875 24.52146421 7.5625 27.625 C3.74562301 29.65525372 0.86020446 29.89050965 -3.375 29.1875 C-6.53592492 27.88190058 -7.93006175 27.06170965 -9.484375 24.0078125 C-11.30846166 18.23153808 -11.69329039 10.70708659 -9.546875 4.9765625 C-6.8882641 0.90928463 -4.65184824 0.03863661 0 0 Z " fill="#F4F4F4" transform="translate(888.375,137.8125)"/>
<path d="M0 0 C2.9375 1.0625 2.9375 1.0625 5 3 C5.8125 6.6875 5.8125 6.6875 6 10 C4.02 10 2.04 10 0 10 C-0.33 9.01 -0.66 8.02 -1 7 C-2.65 7 -4.3 7 -6 7 C-6 11.95 -6 16.9 -6 22 C-4.35 22 -2.7 22 -1 22 C-0.67 20.68 -0.34 19.36 0 18 C2.31 18 4.62 18 7 18 C6.52517335 22.17847455 5.95940617 24.92677052 3 28 C-0.71014101 29.23671367 -4.14438758 29.56368603 -8 29 C-10.8100346 27.20636089 -12.50940468 25.98119065 -14 23 C-14.23049806 20.04437304 -14.36997612 17.14690885 -14.4375 14.1875 C-14.48326172 13.37990234 -14.52902344 12.57230469 -14.57617188 11.74023438 C-14.68550339 5.93615723 -14.68550339 5.93615723 -12.77612305 3.32861328 C-8.33675951 -0.60085644 -5.59033977 -0.70988442 0 0 Z " fill="#F5F5F5" transform="translate(783,87)"/>
<path d="M0 0 C1.98 0 3.96 0 6 0 C7.78466761 3.95176398 8.68819198 7.88155334 9.53515625 12.109375 C9.8268275 13.9994375 9.8268275 13.9994375 11 15 C11.99 10.38 12.98 5.76 14 1 C16.31 1 18.62 1 21 1 C20.39215968 7.03005229 19.16834954 12.61734346 17.5 18.4375 C17.27441406 19.25154297 17.04882812 20.06558594 16.81640625 20.90429688 C15.13649644 26.86350356 15.13649644 26.86350356 14 28 C11.66702567 28.04092937 9.33294775 28.04241723 7 28 C4.95538064 22.2750658 3.29704148 16.51536315 1.8125 10.625 C1.63364258 9.92310547 1.45478516 9.22121094 1.27050781 8.49804688 C0.54898436 5.58663644 0 3.0118018 0 0 Z " fill="#F4F4F4" transform="translate(817,87)"/>
<path d="M0 0 C0 1.98 0 3.96 0 6 C-1.32 6 -2.64 6 -4 6 C-4 7.65 -4 9.3 -4 11 C-2.68 11 -1.36 11 0 11 C0 12.65 0 14.3 0 16 C-1.32 16 -2.64 16 -4 16 C-4 23.26 -4 30.52 -4 38 C-6.31 38 -8.62 38 -11 38 C-11 30.74 -11 23.48 -11 16 C-11.99 16 -12.98 16 -14 16 C-14 14.35 -14 12.7 -14 11 C-13.01 11 -12.02 11 -11 11 C-11.0825 9.9275 -11.165 8.855 -11.25 7.75 C-11 4 -11 4 -9.4375 1.5625 C-6.18129203 -0.5248128 -3.79004984 -0.2915423 0 0 Z " fill="#F4F4F4" transform="translate(631,27)"/>
<path d="M0 0 C2.64 0 5.28 0 8 0 C8 12.54 8 25.08 8 38 C5.36 38 2.72 38 0 38 C0 25.46 0 12.92 0 0 Z " fill="#EDEDED" transform="translate(583,27)"/>
<path d="M0 0 C2.31 0 4.62 0 7 0 C7 2.64 7 5.28 7 8 C8.32 8 9.64 8 11 8 C11 9.65 11 11.3 11 13 C9.68 13 8.36 13 7 13 C7 18.28 7 23.56 7 29 C8.32 29 9.64 29 11 29 C11 30.98 11 32.96 11 35 C3.47991846 35.36984008 3.47991846 35.36984008 1.390625 33.75976562 C-0.37220868 31.52898873 -0.34966133 30.3665129 -0.29296875 27.55078125 C-0.28330078 26.70322266 -0.27363281 25.85566406 -0.26367188 24.98242188 C-0.23853516 24.10134766 -0.21339844 23.22027344 -0.1875 22.3125 C-0.17396484 21.41982422 -0.16042969 20.52714844 -0.14648438 19.60742188 C-0.11114079 17.40433834 -0.06180493 15.20247418 0 13 C-0.99 13 -1.98 13 -3 13 C-3 11.35 -3 9.7 -3 8 C-2.01 8 -1.02 8 0 8 C0 5.36 0 2.72 0 0 Z " fill="#F4F4F5" transform="translate(903,132)"/>
<path d="M0 0 C2.31 0 4.62 0 7 0 C7 2.64 7 5.28 7 8 C8.32 8 9.64 8 11 8 C11 9.65 11 11.3 11 13 C9.68 13 8.36 13 7 13 C7 18.28 7 23.56 7 29 C8.32 29 9.64 29 11 29 C11 30.98 11 32.96 11 35 C3.47991846 35.36984008 3.47991846 35.36984008 1.390625 33.75976562 C-0.37220868 31.52898873 -0.34966133 30.3665129 -0.29296875 27.55078125 C-0.28330078 26.70322266 -0.27363281 25.85566406 -0.26367188 24.98242188 C-0.23853516 24.10134766 -0.21339844 23.22027344 -0.1875 22.3125 C-0.17396484 21.41982422 -0.16042969 20.52714844 -0.14648438 19.60742188 C-0.11114079 17.40433834 -0.06180493 15.20247418 0 13 C-0.99 13 -1.98 13 -3 13 C-3 11.35 -3 9.7 -3 8 C-2.01 8 -1.02 8 0 8 C0 5.36 0 2.72 0 0 Z " fill="#F4F4F4" transform="translate(728,132)"/>
<path d="M0 0 C2.31 0 4.62 0 7 0 C7 2.64 7 5.28 7 8 C8.32 8 9.64 8 11 8 C11 9.65 11 11.3 11 13 C9.68 13 8.36 13 7 13 C7.33 17.95 7.66 22.9 8 28 C8.99 28.33 9.98 28.66 11 29 C11 30.98 11 32.96 11 35 C4.74289985 35.4813154 4.74289985 35.4813154 1.78125 33.5625 C-0.8806696 29.73307181 -0.43454474 26.29263985 -0.25 21.75 C-0.23195313 20.90953125 -0.21390625 20.0690625 -0.1953125 19.203125 C-0.14830798 17.13492605 -0.07656724 15.06731559 0 13 C-0.66 13 -1.32 13 -2 13 C-2 11.35 -2 9.7 -2 8 C-1.34 8 -0.68 8 0 8 C0 5.36 0 2.72 0 0 Z " fill="#F6F6F6" transform="translate(793,81)"/>
<path d="M0 0 C2.31 0 4.62 0 7 0 C7.33 0.66 7.66 1.32 8 2 C8.66 1.34 9.32 0.68 10 0 C11.32 0 12.64 0 14 0 C14 2.31 14 4.62 14 7 C11.69 7 9.38 7 7 7 C7 13.93 7 20.86 7 28 C4.69 28 2.38 28 0 28 C0 18.76 0 9.52 0 0 Z " fill="#F2F2F2" transform="translate(765,138)"/>
<path d="M0 0 C0 2.31 0 4.62 0 7 C-1.98 7 -3.96 7 -6 7 C-5.99476318 7.63091553 -5.98952637 8.26183105 -5.98413086 8.91186523 C-5.96342174 11.75373347 -5.95035934 14.59558588 -5.9375 17.4375 C-5.92912109 18.43072266 -5.92074219 19.42394531 -5.91210938 20.44726562 C-5.90888672 21.39150391 -5.90566406 22.33574219 -5.90234375 23.30859375 C-5.89710693 24.18314209 -5.89187012 25.05769043 -5.88647461 25.95874023 C-6 28 -6 28 -7 29 C-8.98 29 -10.96 29 -13 29 C-13 19.76 -13 10.52 -13 1 C-11.02 1 -9.04 1 -7 1 C-6.67 1.66 -6.34 2.32 -6 3 C-5.566875 2.505 -5.13375 2.01 -4.6875 1.5 C-3 0 -3 0 0 0 Z " fill="#F3F3F4" transform="translate(670,36)"/>
<path d="M0 0 C2.31 0 4.62 0 7 0 C7.33 0.66 7.66 1.32 8 2 C8.99 2 9.98 2 11 2 C10.51917969 2.59167969 10.03835938 3.18335938 9.54296875 3.79296875 C7.2616561 8.53463379 7.42894827 13.11225279 7.3125 18.3125 C7.27833984 19.33923828 7.24417969 20.36597656 7.20898438 21.42382812 C7.12676591 23.94910963 7.05753064 26.4740554 7 29 C4.69 29 2.38 29 0 29 C0 19.43 0 9.86 0 0 Z " fill="#F1F1F1" transform="translate(631,138)"/>
<path d="M0 0 C2.31 0 4.62 0 7 0 C7.33 0.66 7.66 1.32 8 2 C8.66 2.33 9.32 2.66 10 3 C9.67854004 3.55268555 9.35708008 4.10537109 9.02587891 4.67480469 C7.85440218 7.33000325 7.6868676 9.30979535 7.5859375 12.203125 C7.52792969 13.67265625 7.52792969 13.67265625 7.46875 15.171875 C7.42234375 16.69554687 7.42234375 16.69554687 7.375 18.25 C7.33632813 19.28125 7.29765625 20.3125 7.2578125 21.375 C7.16368326 23.9164894 7.07805021 26.45797433 7 29 C4.69 29 2.38 29 0 29 C0 19.43 0 9.86 0 0 Z " fill="#EEEFEF" transform="translate(672,36)"/>
<path d="M0 0 C1.98 0 3.96 0 6 0 C6.33 0.66 6.66 1.32 7 2 C7.99 1.34 8.98 0.68 10 0 C10.99 0 11.98 0 13 0 C13 2.31 13 4.62 13 7 C11.02 7.33 9.04 7.66 7 8 C6.67 14.6 6.34 21.2 6 28 C4.02 28 2.04 28 0 28 C0 18.76 0 9.52 0 0 Z " fill="#F9F9F9" transform="translate(643,87)"/>
<path d="M0 0 C2.31 0 4.62 0 7 0 C7 9.57 7 19.14 7 29 C4.69 29 2.38 29 0 29 C0 19.43 0 9.86 0 0 Z " fill="#EEEEEE" transform="translate(917,138)"/>
<path d="M0 0 C2.31 0 4.62 0 7 0 C7 9.57 7 19.14 7 29 C4.69 29 2.38 29 0 29 C0 19.43 0 9.86 0 0 Z " fill="#F0F0F1" transform="translate(716,138)"/>
<path d="M0 0 C2.31 0 4.62 0 7 0 C7 9.57 7 19.14 7 29 C4.69 29 2.38 29 0 29 C0 19.43 0 9.86 0 0 Z " fill="#F1F1F1" transform="translate(807,87)"/>
<path d="M0 0 C2.31 0 4.62 0 7 0 C7 9.57 7 19.14 7 29 C4.69 29 2.38 29 0 29 C0 19.43 0 9.86 0 0 Z " fill="#EEEEEF" transform="translate(709,36)"/>
<path d="M0 0 C6.875 0.875 6.875 0.875 8 2 C8.08748207 3.92667507 8.10697334 5.85651861 8.09765625 7.78515625 C8.09443359 8.95498047 8.09121094 10.12480469 8.08789062 11.33007812 C8.07951172 12.56177734 8.07113281 13.79347656 8.0625 15.0625 C8.05798828 16.29806641 8.05347656 17.53363281 8.04882812 18.80664062 C8.03699608 21.87114117 8.02051173 24.93554721 8 28 C6.02 28 4.04 28 2 28 C1.67 20.74 1.34 13.48 1 6 C-0.32 5.34 -1.64 4.68 -3 4 C-2.01 2.68 -1.02 1.36 0 0 Z " fill="#FCFCFC" transform="translate(654,138)"/>
<path d="M0 0 C1.32 0.33 2.64 0.66 4 1 C4.33 2.65 4.66 4.3 5 6 C4.31292969 6.25394531 3.62585938 6.50789062 2.91796875 6.76953125 C2.01691406 7.11371094 1.11585938 7.45789063 0.1875 7.8125 C-0.70582031 8.14894531 -1.59914063 8.48539063 -2.51953125 8.83203125 C-4.97654654 9.98895656 -6.35986243 10.85520471 -8 13 C-8.73041853 16.61023099 -8.73041853 16.61023099 -9 20 C-9.33 19.34 -9.66 18.68 -10 18 C-11.32 18 -12.64 18 -14 18 C-14 12.72 -14 7.44 -14 2 C-12.35 2 -10.7 2 -9 2 C-9 2.66 -9 3.32 -9 4 C-6.69 4 -4.38 4 -2 4 C-1.34 2.68 -0.68 1.36 0 0 Z " fill="#606062" transform="translate(749,143)"/>
<path d="M0 0 C1.98 0 3.96 0 6 0 C6 8.91 6 17.82 6 27 C4.02 27 2.04 27 0 27 C0 18.09 0 9.18 0 0 Z " fill="#FEFEFE" transform="translate(782,139)"/>
<path d="M0 0 C0.33 0 0.66 0 1 0 C1 8.91 1 17.82 1 27 C0.01 27.33 -0.98 27.66 -2 28 C-2 26.02 -2 24.04 -2 22 C-3.32 22 -4.64 22 -6 22 C-6 16.72 -6 11.44 -6 6 C-4.35 5.67 -2.7 5.34 -1 5 C-0.67 3.35 -0.34 1.7 0 0 Z " fill="#5F5F61" transform="translate(916,139)"/>
<path d="M0 0 C2.5 0.125 2.5 0.125 3.5 1.125 C3.59975032 3.63636104 3.63882183 6.11403415 3.625 8.625 C3.62886719 9.32753906 3.63273438 10.03007812 3.63671875 10.75390625 C3.62661378 15.99838622 3.62661378 15.99838622 2.5 17.125 C0 17.25 0 17.25 -2.5 17.125 C-4.25559942 15.36940058 -3.63221919 13.08917558 -3.63671875 10.75390625 C-3.63285156 10.05136719 -3.62898437 9.34882813 -3.625 8.625 C-3.62886719 7.92246094 -3.63273438 7.21992188 -3.63671875 6.49609375 C-3.62455138 0.18122757 -3.62455138 0.18122757 0 0 Z " fill="#5C5C5E" transform="translate(938.5,143.875)"/>
<path d="M0 0 C2.5 0.125 2.5 0.125 3.5 1.125 C3.59975032 3.63636104 3.63882183 6.11403415 3.625 8.625 C3.62886719 9.32753906 3.63273438 10.03007813 3.63671875 10.75390625 C3.62661378 15.99838622 3.62661378 15.99838622 2.5 17.125 C0 17.25 0 17.25 -2.5 17.125 C-4.25559942 15.36940058 -3.63221919 13.08917558 -3.63671875 10.75390625 C-3.63285156 10.05136719 -3.62898437 9.34882812 -3.625 8.625 C-3.62886719 7.92246094 -3.63273438 7.21992187 -3.63671875 6.49609375 C-3.62455138 0.18122757 -3.62455138 0.18122757 0 0 Z " fill="#5B5B5D" transform="translate(628.5,92.875)"/>
<path d="M0 0 C2.5 0.125 2.5 0.125 3.5 1.125 C3.59975032 3.63636104 3.63882183 6.11403415 3.625 8.625 C3.62886719 9.32753906 3.63273438 10.03007813 3.63671875 10.75390625 C3.62661378 15.99838622 3.62661378 15.99838622 2.5 17.125 C0 17.25 0 17.25 -2.5 17.125 C-4.25559942 15.36940058 -3.63221919 13.08917558 -3.63671875 10.75390625 C-3.63285156 10.05136719 -3.62898437 9.34882812 -3.625 8.625 C-3.62886719 7.92246094 -3.63273438 7.21992187 -3.63671875 6.49609375 C-3.62455138 0.18122757 -3.62455138 0.18122757 0 0 Z " fill="#5A5A5C" transform="translate(642.5,41.875)"/>
<path d="M0 0 C1.67542976 0.28604898 3.34385343 0.61781233 5 1 C5.09765625 7.15234375 5.09765625 7.15234375 5 9 C4 10 4 10 1.4375 10.0625 C0.633125 10.041875 -0.17125 10.02125 -1 10 C-1.02689216 8.52093108 -1.04634621 7.04172517 -1.0625 5.5625 C-1.07410156 4.73878906 -1.08570313 3.91507813 -1.09765625 3.06640625 C-1 1 -1 1 0 0 Z " fill="#5D5D5F" transform="translate(752,42)"/>
<path d="M0 0 C0.1875 3.375 0.1875 3.375 0 7 C-3 9 -3 9 -5.6875 8.625 C-6.450625 8.41875 -7.21375 8.2125 -8 8 C-7.8125 5.6875 -7.8125 5.6875 -7 3 C-2.96551724 0 -2.96551724 0 0 0 Z " fill="#6C6C6E" transform="translate(868,153)"/>
<path d="M0 0 C0.1875 3.375 0.1875 3.375 0 7 C-3 9 -3 9 -5.6875 8.625 C-6.450625 8.41875 -7.21375 8.2125 -8 8 C-7.8125 5.6875 -7.8125 5.6875 -7 3 C-2.96551724 0 -2.96551724 0 0 0 Z " fill="#68696A" transform="translate(754,153)"/>
<path d="M0 0 C0 2.31 0 4.62 0 7 C-2.35438733 8.42944945 -3.48032433 9.08661261 -6.25 8.625 C-6.8275 8.41875 -7.405 8.2125 -8 8 C-7.8125 5.6875 -7.8125 5.6875 -7 3 C-2.96551724 0 -2.96551724 0 0 0 Z " fill="#68686A" transform="translate(680,153)"/>
<path d="M0 0 C0.125 3.375 0.125 3.375 0 7 C-0.66 7.66 -1.32 8.32 -2 9 C-4.625 8.625 -4.625 8.625 -7 8 C-6.8125 5.6875 -6.8125 5.6875 -6 3 C-1.86206897 0 -1.86206897 0 0 0 Z " fill="#616163" transform="translate(806,153)"/>
<path d="M0 0 C2.31 0 4.62 0 7 0 C7 1.98 7 3.96 7 6 C4.69 6 2.38 6 0 6 C0 4.02 0 2.04 0 0 Z " fill="#EDEDEE" transform="translate(917,128)"/>
<path d="M0 0 C2.31 0 4.62 0 7 0 C7 1.98 7 3.96 7 6 C4.69 6 2.38 6 0 6 C0 4.02 0 2.04 0 0 Z " fill="#F0F0F0" transform="translate(716,128)"/>
<path d="M0 0 C2.31 0 4.62 0 7 0 C7 1.98 7 3.96 7 6 C4.69 6 2.38 6 0 6 C0 4.02 0 2.04 0 0 Z " fill="#F2F2F2" transform="translate(807,77)"/>
<path d="M0 0 C2.31 0 4.62 0 7 0 C7 1.98 7 3.96 7 6 C4.69 6 2.38 6 0 6 C0 4.02 0 2.04 0 0 Z " fill="#E4E4E4" transform="translate(709,26)"/>
<path d="M0 0 C1.98 0 3.96 0 6 0 C6.33 1.65 6.66 3.3 7 5 C4.36 5 1.72 5 -1 5 C-0.67 3.35 -0.34 1.7 0 0 Z " fill="#717173" transform="translate(752,93)"/>
<path d="M0 0 C1.98 0 3.96 0 6 0 C6.33 1.65 6.66 3.3 7 5 C4.36 5 1.72 5 -1 5 C-0.67 3.35 -0.34 1.7 0 0 Z " fill="#6F6F70" transform="translate(702,93)"/>
<path d="M0 0 C1.98 0 3.96 0 6 0 C6 1.98 6 3.96 6 6 C4.02 6 2.04 6 0 6 C0 4.02 0 2.04 0 0 Z " fill="#F9F9F9" transform="translate(782,128)"/>
<path d="M0 0 C0 1.98 0 3.96 0 6 C-2.31 6 -4.62 6 -7 6 C-6.67 4.35 -6.34 2.7 -6 1 C-3.92446352 0.4465236 -2.15634036 0 0 0 Z " fill="#737375" transform="translate(733,83)"/>
<path d="M0 0 C2.97 0 5.94 0 9 0 C9.33 0.99 9.66 1.98 10 3 C7.04335481 4.4783226 4.25770263 4.06032783 1 4 C0.67 2.68 0.34 1.36 0 0 Z " fill="#69696B" transform="translate(750,66)"/>
<path d="M0 0 C1.98 0 3.96 0 6 0 C6.33 1.65 6.66 3.3 7 5 C4.69 5 2.38 5 0 5 C0 3.35 0 1.7 0 0 Z " fill="#676869" transform="translate(665,93)"/>
<path d="M0 0 C1.65 0 3.3 0 5 0 C5.33 1.65 5.66 3.3 6 5 C3.69 5 1.38 5 -1 5 C-0.67 3.35 -0.34 1.7 0 0 Z " fill="#646466" transform="translate(848,93)"/>
<path d="M0 0 C1.65 0 3.3 0 5 0 C5 1.32 5 2.64 5 4 C3.35 4 1.7 4 0 4 C0 2.68 0 1.36 0 0 Z " fill="#FFFFFF" transform="translate(710,27)"/>
</svg>
