<?xml version="1.0" encoding="UTF-8"?>
<svg xmlns="http://www.w3.org/2000/svg" version="1.1" xmlns:xlink="http://www.w3.org/1999/xlink" viewBox="0 0 510 510">
  <defs>
    <style>
      .cls-1 {
        filter: url(#drop-shadow-1);
      }

      .cls-2 {
        fill: #fff;
        stroke: #000;
        stroke-width: 13.9px;
      }

      .cls-3 {
        display: none;
      }
    </style>
    <filter id="drop-shadow-1">
      <feOffset dx="6.94" dy="6.94"/>
      <feGaussianBlur result="blur" stdDeviation="4.96"/>
      <feFlood flood-color="#000" flood-opacity=".75"/>
      <feComposite in2="blur" operator="in"/>
      <feComposite in="SourceGraphic"/>
    </filter>
  </defs>
  <!-- Generator: Adobe Illustrator 28.6.0, SVG Export Plug-In . SVG Version: 1.2.0 Build 709)  -->
  <g>
    <g id="Capa_1">
      <g id="Capa_1-2" class="cls-1">
        <rect class="cls-2" x="15.1" y="15" width="465.8" height="466"/>
      </g>
      <g class="cls-3">
        <path d="M151.7,233.9c1.4-4.1,2-5.9,5.9-7.8,9.1-2.9,16.8-8.9,23.4-15.7,18.7-20.2,29.4-48.3,28.4-76,0-1.1-.1-2.1-.2-3.1-.4-8.1-1-16.1-3-24-.3-1.1-.6-2.2-.9-3.3-5.7-20.3-14.6-38.2-32.3-50.7-15.8-9.9-33.8-13.2-52.3-9.7-22.1,6.9-36.5,20.6-47.4,40.6-12.7,27.5-13.5,61.5-4.1,90,7,19.3,19,39.3,38.2,48.4,4.2,1.9,8.2,3.4,11.4,6.9,7,12,6.5,28.4,5.1,41.8-.2,1.5-.3,2.9-.5,4.3-.7,6.1-1.4,12.2-3.4,18-5.4,14.5-8.1,37-8.1,67.5,0,5.5,0,11.1,0,16.6,0,10.8-.1,21.5-.1,32.3v2.7c0,18.3.8,33.5,2.2,46.1,15.2-.7,29.7.3,44.6.5.7-6,1.2-12.3,1.3-19,0-14.3-.2-28.5-.3-42.8,0-7.4-.1-14.7-.2-22.1,0-7.2,0-14.4-.1-21.6,0-2.8,0-5.5,0-8.2,0-3.9,0-7.9,0-11.8,0-1.2,0-2.5,0-3.7,0-8.2-.9-15.2-3.5-23-7.1-21.1-12-48.1-5.1-69.8.4-1.1.8-2.3,1.2-3.4h0ZM84.4,169.1c-9.1-23.8-3-48.9,6.5-71.5h1.3c-.3,34.1.2,61.6,14.1,93.2,2.5,5.7,4.9,11.4,6.7,17.3-13.2-10.1-22-23.9-28.6-39Z"/>
        <path d="M431.5,43.5c-6.1.9-10.3,2.3-12.6,4.2-30.9,37.1-48.8,128.4-53.7,274,2.5-.1,4.8.1,6.7.8,8.2,4,15,9.2,19.3,17.4,4.7,10.6,5.4,22.8,1.7,33.9-3.4,9.6-3.6,18.9-3.8,29,0,2.9,0,5.8-.1,8.6,0,1.8,0,3.7-.1,5.5,0,1.9,0,28.4-.1,41.3h44.1c-.6-174.3-.6-242.2-1.3-414.7h0Z"/>
        <path d="M341,153.8c-.1-1.1-.2-2.1-.4-3.1-.4-3.5-.8-7-1.2-10.5-.3-2.5-.6-5-.9-7.4-.8-6.5-1.5-13.1-2.3-19.6-.8-6.8-1.6-13.5-2.4-20.3-1.7-14.6-3.4-29.1-5.1-43.6-4.4-.4-8.7-.9-13-1.3.4,12.6.8,25.1,1.2,37.7,0,1,0,2,0,3,1,30.6,1.8,61.2,1.3,91.9h-13V48h-13v132.6h-10.4V48h-14.3v132.6h-13c-.2-24.5.2-48.9,1-73.3.1-3.6.2-7.2.3-10.9.1-3.6.2-7.2.3-10.8,0-1.8.1-3.5.2-5.2.3-8.8.6-17.5,1.4-26.3.2-2,.4-4,.6-6h-13c0,4.2-.3,8.1-.8,12.2-.1,1-.2,1.9-.4,2.8-.3,2-.5,4.1-.8,6.1-.4,3.3-.9,6.7-1.3,10-1.2,9.6-2.4,19.2-3.7,28.8-.8,6-1.6,11.9-2.3,17.9-.3,2.3-.6,4.6-.9,6.9-1.2,9-2.5,18-3,27.1-.5,19.2,3.6,33.4,16.9,47.6,5.7,6.2,11.1,12.5,15.4,19.7,9.9,18.8,13.2,41.7,7.5,62.5-5.2,17.7-6.8,34.1-6.7,52.5,0,3.1,0,6.1,0,9.2,0,8.1-.1,16.2-.1,24.3s0,16.8,0,25.1c0,17.3-.1,34.6-.2,51.9v.8h44.3c0-1.4,0-2.6,0-3.3v-2.9c-.2-15.2-.3-30.5-.4-45.8,0-8.2-.1-16.4-.1-24.6,0-8,0-16-.1-24,0-3.1,0-6.2,0-9.2,0-17.9-.5-35-4.1-52.5-1.6-7.4-2.5-14.5-2.4-22.1,0-1.2,0-2.4.1-3.5.2-22.1,7.1-40.7,21.7-57.4,2.9-3.1,5.8-6.2,8.6-9.4,9.1-14.3,10.1-28.6,8.3-45h0Z"/>
      </g>
      <path d="M453.6,117.4v121.7c-19.6,1.8-19.2,15-18.8,30.2.9,38.8.2,77.5.4,116.3,0,10.7-2,20.8-11.3,26.8-6.9,4.4-7.8,9.7-7.4,16.6.6,8.3-1.5,15.9-8.2,21.3-7,5.6-14.7,7.6-23.4,3.8-10.2-4.4-15.1-12.4-14.4-23,.7-10.1-2.9-12.5-12.7-12.4-68.7.4-137.4.4-206.2,0-9,0-14.7,1.1-12.9,11.9.4,2.5,0,5.3-.7,7.8-2.7,10.6-13,18-23.6,17.4-11.8-.7-20.2-9.8-21.9-22.6-.7-5.3,3.7-12.6-5.6-15.3-17.1-5-22.5-17.6-22.3-34.4.4-43.2,0-86.4.2-129.5,0-6,.5-11.4-8.3-11.3-7.7,0-10.3-5.2-10.3-12.5,0-34.8,0-69.6,0-104.4,0-5.9,1.6-11.7,7.9-11.7,11.5,0,11-6.9,10.6-14.7-.2-4.4,0-8.8,0-13.2,0-28.4,9.5-37.7,38.3-37.7,97.8,0,195.6,0,293.4,0,29.6,0,39.4,9.1,38.4,38.6-.5,15.2-.8,28.4,18.8,30.2ZM161.7,270.8c18.9,0,37.9-.1,56.8,0,8.7,0,13-3.7,13-12.6,0-34.8-.1-69.6,0-104.4,0-8.9-4.2-12.7-12.9-12.7-37.4,0-74.8.2-112.3,0-9.5,0-13.7,3.9-13.7,13.4.1,34.3.1,68.7,0,103,0,9.4,4.1,13.5,13.6,13.4,18.5-.3,37,0,55.5,0ZM337.5,141.3c-18.5,0-37,.2-55.5,0-9.4-.1-13.7,3.8-13.6,13.4.2,34.3.2,68.7,0,103,0,9.6,4.3,13.4,13.7,13.3,37-.2,74-.3,110.9,0,10.2,0,14.4-4,14.3-14.1-.2-33.9-.2-67.8,0-101.7,0-10.1-4.3-14.2-14.4-14-18.5.4-37,.1-55.5.1ZM250,104.2c47.1,0,94.2,0,141.3,0,13.5,0,16.7-3.8,16-16.2-.7-11.6-8.6-11.5-16.8-11.5-93.7,0-187.5,0-281.2,0-2.2,0-4.4,0-6.6.2-6.3.4-9.2,3.9-10,10.1-1.6,12.8,2.3,17.3,16.1,17.4,47.1,0,94.2,0,141.3,0ZM115.1,336.1c-12.7.3-22.4,10.4-22.2,23.2.2,12.6,10.4,22.7,22.8,22.6,12.9,0,23.5-11.1,22.9-24-.5-12.5-11-22.1-23.6-21.8ZM416.5,359.5c.4-12.4-9.2-22.7-21.7-23.4-13.1-.7-23.8,9.1-24.1,22.2-.3,12.4,9.4,22.9,21.6,23.6,12.7.7,23.9-9.6,24.2-22.4Z"/>
    </g>
  </g>
</svg>